<?xml version="1.0" encoding="UTF-8" standalone="no"?>
<svg
   xmlns:dc="http://purl.org/dc/elements/1.1/"
   xmlns:cc="http://creativecommons.org/ns#"
   xmlns:rdf="http://www.w3.org/1999/02/22-rdf-syntax-ns#"
   xmlns:svg="http://www.w3.org/2000/svg"
   xmlns="http://www.w3.org/2000/svg"
   id="svg6669"
   version="1.1"
   viewBox="0 0 26.458333 26.458334"
   height="100"
   width="100">
  <defs
     id="defs6663" />
  <metadata
     id="metadata6666">
    <rdf:RDF>
      <cc:Work
         rdf:about="">
        <dc:format>image/svg+xml</dc:format>
        <dc:type
           rdf:resource="http://purl.org/dc/dcmitype/StillImage" />
        <dc:title></dc:title>
      </cc:Work>
    </rdf:RDF>
  </metadata>
  <g
     transform="translate(0,-270.54164)"
     id="layer1">
    <g
       id="g1757-5-9-9-4"
       style="fill:#1a1a1a;stroke:#ffffff"
       transform="matrix(0.012042,0,0,0.012042,44.007541,316.41171)">
      <g
         id="g2046-8-2-2">
        <path
           id="path1658-4-2-7-41"
           d="m -2591.9241,-1790.1048 -45.9425,-45.97 45.0228,-45.051 c 24.7625,-24.7781 46.2768,-45.051 47.8095,-45.051 3.6434,0 90.1012,86.5194 90.1012,90.1656 0,2.3939 -87.851,91.8764 -90.2015,91.8764 -0.4659,0 -21.5212,-20.6866 -46.7895,-45.97 z"
           style="fill:#dbdbdb;stroke:none;stroke-width:1.83880806" />
        <path
           id="path1656-3-3-1-22"
           d="m -2735.7293,-1932.1091 c -23.5676,-23.4897 -43.3509,-44.2862 -43.9629,-46.2145 -0.8771,-2.7637 8.3691,-12.9939 43.6657,-48.3126 24.6282,-24.6435 45.6186,-44.8064 46.6454,-44.8064 2.9863,0 91.021,88.9236 91.021,91.9401 0,4.2089 -86.6699,90.1019 -90.9169,90.1019 -2.2438,0 -19.7614,-16.1058 -46.4523,-42.7085 z"
           style="fill:#dbdbdb;stroke:none;stroke-width:1.83880806" />
        <path
           id="path1654-0-3-1-33"
           d="m -2449.0068,-1934.0779 c -24.4976,-24.5725 -44.5412,-45.4272 -44.5412,-46.3437 0,-2.9163 88.9601,-91.021 91.9046,-91.021 3.0584,0 91.9762,88.0213 91.9762,91.0488 0,3.0079 -88.9628,90.9932 -92.004,90.9932 -1.5369,0 -22.8379,-20.1048 -47.3356,-44.6773 z"
           style="fill:#dbdbdb;stroke:none;stroke-width:1.83880806" />
        <path
           id="path1652-9-3-4-9"
           d="m -3230.5189,-2029.4944 c -3.4505,-3.4506 -3.1783,-125.296 0.2864,-128.1715 1.7962,-1.4907 20.6105,-1.9498 65.7374,-1.6042 l 63.221,0.4841 v 65.2777 65.2777 l -63.5074,0.483 c -47.8585,0.3641 -64.0569,-0.066 -65.7374,-1.7468 z"
           style="fill:#dbdbdb;stroke:none;stroke-width:1.83880806" />
        <path
           id="path1650-4-8-9-5"
           d="m -3027.7951,-2029.5974 c -0.4924,-1.2834 -0.6774,-30.8758 -0.411,-65.761 l 0.4844,-63.4276 h 65.2776 65.2777 v 65.2777 65.2777 l -64.8666,0.4832 c -51.0694,0.3805 -65.0571,-0.013 -65.7621,-1.8501 z"
           style="fill:#dbdbdb;stroke:none;stroke-width:1.83880806" />
        <path
           id="path1648-1-3-4-6"
           d="m -2192.6972,-2030.1965 c -0.6188,-1.6126 -1.1251,-30.483 -1.1251,-64.1565 0,-49.5631 0.4793,-61.6223 2.5163,-63.3129 1.7962,-1.4907 20.6106,-1.9498 65.7374,-1.6042 l 63.2211,0.4841 v 65.2777 65.2777 l -64.6124,0.483 c -57.7215,0.4314 -64.7322,0.1702 -65.7373,-2.4489 z"
           style="fill:#dbdbdb;stroke:none;stroke-width:1.83880806" />
        <path
           id="path1646-5-8-6-3"
           d="m -1988.4656,-2028.5139 c -0.687,-0.687 -1.249,-29.4932 -1.249,-64.0137 0,-46.3652 0.5765,-63.3412 2.2065,-64.9712 3.4293,-3.4293 125.2895,-3.1347 128.1481,0.3097 1.4907,1.7962 1.9498,20.6106 1.6043,65.7374 l -0.4842,63.2211 -64.4883,0.4828 c -35.4686,0.2656 -65.0504,-0.079 -65.7374,-0.7661 z"
           style="fill:#dbdbdb;stroke:none;stroke-width:1.83880806" />
        <path
           id="path1644-6-0-5-6"
           d="m -2590.5592,-2077.4325 c -24.5174,-24.5327 -44.577,-45.8463 -44.577,-47.3634 0,-1.5172 20.275,-23.0209 45.0555,-47.7859 l 45.0556,-45.0274 46.4159,46.4159 46.416,46.416 -45.9472,45.9748 c -25.271,25.2862 -46.3735,45.9748 -46.8945,45.9748 -0.521,0 -21.0069,-20.0722 -45.5243,-44.6048 z"
           style="fill:#dbdbdb;stroke:none;stroke-width:1.83880806" />
        <path
           id="path1642-0-0-9-0"
           d="m -3231.4998,-2232.6216 c -0.687,-0.687 -1.249,-29.4932 -1.249,-64.0137 0,-46.3652 0.5765,-63.3412 2.2065,-64.9712 2.5583,-2.5583 123.9376,-3.1996 127.9134,-0.6759 1.8139,1.1515 2.2167,15.5433 1.8388,65.7093 l -0.484,64.2348 -64.4883,0.4828 c -35.4686,0.2656 -65.0504,-0.079 -65.7374,-0.7661 z"
           style="fill:#dbdbdb;stroke:none;stroke-width:1.83880806" />
        <path
           id="path1640-8-9-6-6"
           d="m -3027.3921,-2232.6216 c -0.687,-0.687 -1.249,-29.4932 -1.249,-64.0137 0,-46.3652 0.5765,-63.3412 2.2065,-64.9712 3.4292,-3.4293 125.2895,-3.1347 128.1481,0.3097 1.4907,1.7962 1.9498,20.6106 1.6042,65.7374 l -0.4841,63.2211 -64.4883,0.4828 c -35.4686,0.2656 -65.0505,-0.079 -65.7374,-0.7661 z"
           style="fill:#dbdbdb;stroke:none;stroke-width:1.83880806" />
        <path
           id="path1638-0-3-3-3"
           d="m -2192.5733,-2232.6216 c -0.6869,-0.687 -1.249,-29.4932 -1.249,-64.0137 0,-46.3652 0.5765,-63.3412 2.2066,-64.9712 3.4292,-3.4293 125.2894,-3.1347 128.148,0.3097 1.4907,1.7962 1.9498,20.6106 1.6043,65.7374 l -0.4841,63.2211 -64.4884,0.4828 c -35.4686,0.2656 -65.0504,-0.079 -65.7374,-0.7661 z"
           style="fill:#dbdbdb;stroke:none;stroke-width:1.83880806" />
        <path
           id="path1636-8-8-0-4"
           d="m -1988.4656,-2232.6216 c -0.687,-0.687 -1.249,-29.4932 -1.249,-64.0137 0,-46.3652 0.5765,-63.3412 2.2065,-64.9712 3.4293,-3.4293 125.2895,-3.1347 128.1481,0.3097 1.4907,1.7962 1.9498,20.6106 1.6043,65.7374 l -0.4842,63.2211 -64.4883,0.4828 c -35.4686,0.2656 -65.0504,-0.079 -65.7374,-0.7661 z"
           style="fill:#dbdbdb;stroke:none;stroke-width:1.83880806" />
        <g
           transform="translate(-623.26326,-2783.8877)"
           id="g1663-1-8-3-6">
          <path
             style="fill:#c17836;fill-opacity:1;stroke-width:1.83880806"
             d="m -1979.6938,407.20291 -56.9808,-57.00305 -79.9993,-0.0281 c -47.169,-0.0166 -81.1312,-0.74328 -82.7574,-1.77075 -2.3712,-1.49804 -2.8304,-13.18084 -3.2722,-83.24343 l -0.5139,-81.50085 -56.0295,-56.00682 c -30.8161,-30.803767 -56.0294,-57.258203 -56.0294,-58.78765 0,-1.529447 25.2377,-28.008283 56.0837,-58.841858 l 56.0836,-56.061029 0.025,-78.160653 c 0.015,-42.98835 0.5177,-79.99786 1.1196,-82.24334 l 1.0945,-4.08267 81.6171,-0.51435 81.6171,-0.51433 56.564,-56.54335 c 31.1102,-31.09884 57.7954,-56.54335 59.3004,-56.54335 1.5049,0 28.1901,25.44451 59.3002,56.54335 l 56.564,56.54335 81.2839,0.51612 c 61.46,0.39025 81.6314,1.06294 82.7086,2.75821 0.7835,1.23316 1.4372,38.24186 1.4527,82.24155 l 0.028,79.999463 56.0836,56.061029 c 30.846,30.833575 56.0837,57.312411 56.0837,58.841858 0,1.529447 -25.2377,28.008284 -56.0837,58.84186 l -56.0836,56.06103 v 80.32781 c 0,70.57355 -0.3509,80.6787 -2.8896,83.21738 -2.5385,2.53853 -12.6312,2.88955 -83.079,2.88955 h -80.1895 l -56.2107,57.07778 c -30.9158,31.3928 -57.0431,57.04417 -58.0606,57.00305 -1.0174,-0.0411 -27.4912,-25.7261 -58.8307,-57.07778 z"
             id="path1634-2-8-1-3" />
          <path
             style="fill:#ffffff;stroke:none;stroke-width:1.83880806"
             d="m -1906.1415,223.28864 c 74.4974,-8.29227 131.5106,-65.03147 138.5429,-137.877137 9.2837,-96.166021 -68.4565,-176.869156 -164.137,-170.392745 -66.5309,4.503351 -120.6304,49.101912 -139.4264,114.940417 -5.3967,18.903498 -5.7543,57.390505 -0.7117,76.598625 16.6413,63.38981 68.9025,109.05853 133.5531,116.70596 6.5737,0.7776 12.7797,1.51579 13.791,1.6404 1.0114,0.12467 9.286,-0.60235 18.3881,-1.61552 z"
             id="path1632-2-1-9-1" />
          <path
             style="fill:#c17836;fill-opacity:1;stroke:none;stroke-width:1.83880806"
             d="m -1944.7564,150.86538 c -32.1307,-10.20457 -55.2388,-36.68539 -60.2468,-69.040141 -5.475,-35.371662 13.4337,-71.747992 45.5447,-87.6181013 43.5895,-21.5430707 92.6025,-4.8543797 114.2234,38.8925003 6.2305,12.606519 7.0576,15.939248 7.7212,31.11096 0.5392,12.328766 -0.1105,19.966495 -2.3674,27.830764 -7.9481,27.694948 -29.1019,49.452958 -56.314,57.922308 -13.0357,4.05718 -37.2122,4.50611 -48.5611,0.90171 z"
             id="path1630-5-7-6-7" />
        </g>
        <path
           id="path1628-1-4-4-9"
           d="m -3326.0824,-2524.2629 c -24.5174,-24.5327 -44.577,-45.4325 -44.577,-46.444 0,-2.9855 88.951,-90.9931 91.9685,-90.9931 4.2659,0 90.0735,86.7103 90.0735,91.021 0,4.3284 -85.8166,91.021 -90.1013,91.021 -1.5327,0 -22.8463,-20.0722 -47.3637,-44.6049 z"
           style="fill:#dbdbdb;stroke:none;stroke-width:1.83880806" />
        <path
           id="path1626-8-5-3-1"
           d="m -1856.8748,-2524.2629 c -24.5174,-24.5327 -44.577,-45.8003 -44.577,-47.2614 0,-4.2893 86.6568,-90.1757 90.9845,-90.1757 4.3955,0 91.0574,85.779 91.0574,90.1297 0,3.0157 -88.0615,91.9123 -91.0488,91.9123 -1.0115,0 -21.8988,-20.0722 -46.4161,-44.6049 z"
           style="fill:#dbdbdb;stroke:none;stroke-width:1.83880806" />
        <path
           id="path1624-7-0-9-1"
           d="m -3469.5094,-2667.6899 c -24.5174,-24.5327 -44.5771,-45.8464 -44.5771,-47.3637 0,-3.6022 86.5254,-90.0735 90.1298,-90.0735 3.0387,0 91.9122,88.0734 91.9122,91.0847 0,2.3772 -88.7396,90.9573 -91.1212,90.9573 -0.9717,0 -21.8264,-20.0722 -46.3437,-44.6048 z"
           style="fill:#dbdbdb;stroke:none;stroke-width:1.83880806" />
        <path
           id="path1622-4-9-5-7"
           d="m -3180.8166,-2667.6899 c -24.5173,-24.5327 -44.577,-45.8464 -44.577,-47.3637 0,-3.6022 86.5253,-90.0735 90.1297,-90.0735 1.5171,0 22.9068,20.1612 47.5328,44.8026 38.9055,38.9298 44.5248,45.2569 42.8691,48.2687 -2.6275,4.7794 -87.4279,88.9707 -89.6144,88.9707 -0.9697,0 -21.8228,-20.0722 -46.3402,-44.6048 z"
           style="fill:#dbdbdb;stroke:none;stroke-width:1.83880806" />
        <path
           id="path1620-4-4-7-0"
           d="m -1999.7866,-2667.2126 c -24.8008,-24.7252 -45.0923,-46.2251 -45.0923,-47.7774 0,-3.6449 86.4851,-90.1371 90.1298,-90.1371 1.517,0 23.0205,20.2751 47.7856,45.0556 l 45.0274,45.0556 -46.3791,46.3791 -46.3792,46.3792 z"
           style="fill:#dbdbdb;stroke:none;stroke-width:1.83880806" />
        <path
           id="path1618-9-8-1-9"
           d="m -1712.9738,-2669.0551 -45.9425,-45.9701 45.0227,-45.0509 c 24.7625,-24.778 46.2769,-45.051 47.8095,-45.051 3.6208,0 90.1013,86.5078 90.1013,90.1298 0,2.4191 -87.7571,91.9122 -90.1292,91.9122 -0.5057,0 -21.5935,-20.6865 -46.8618,-45.97 z"
           style="fill:#dbdbdb;stroke:none;stroke-width:1.83880806" />
        <path
           id="path1616-3-9-9-4"
           d="m -3327.0386,-2812.1105 c -23.9914,-24.0677 -43.6208,-44.9836 -43.6208,-46.4797 0,-2.9409 88.2021,-91.8027 91.1212,-91.8027 2.9192,0 90.9208,88.9882 90.9208,91.9401 0,4.3319 -86.6797,90.1019 -91.0575,90.1019 -2.4377,0 -18.9532,-15.2588 -47.3637,-43.7596 z"
           style="fill:#dbdbdb;stroke:none;stroke-width:1.83880806" />
        <path
           id="path1614-3-5-4-5"
           d="m -1857.831,-2812.1105 c -23.9915,-24.0677 -43.6208,-44.9675 -43.6208,-46.444 0,-2.9663 88.108,-91.8384 91.0488,-91.8384 2.9677,0 90.9931,88.9416 90.9931,91.9401 0,4.3319 -86.6796,90.1019 -91.0574,90.1019 -2.4377,0 -18.9532,-15.2588 -47.3637,-43.7596 z"
           style="fill:#dbdbdb;stroke:none;stroke-width:1.83880806" />
        <path
           id="path1612-9-1-9-0"
           d="m -3230.5189,-3068.421 c -3.4505,-3.4505 -3.1783,-125.296 0.2864,-128.1714 1.7962,-1.4907 20.6105,-1.9499 65.7374,-1.6043 l 63.221,0.4841 v 65.2777 65.2777 l -63.5074,0.4831 c -47.8585,0.364 -64.0569,-0.066 -65.7374,-1.7469 z"
           style="fill:#dbdbdb;stroke:none;stroke-width:1.83880806" />
        <path
           id="path1610-4-5-9-04"
           d="m -3027.3921,-3067.4405 c -0.687,-0.687 -1.249,-29.4931 -1.249,-64.0137 0,-46.3652 0.5765,-63.3412 2.2065,-64.9712 3.4292,-3.4292 125.2895,-3.1346 128.1481,0.3098 1.4907,1.7961 1.9498,20.6105 1.6042,65.7374 l -0.4841,63.221 -64.4883,0.4829 c -35.4686,0.2655 -65.0505,-0.079 -65.7374,-0.7662 z"
           style="fill:#dbdbdb;stroke:none;stroke-width:1.83880806" />
        <path
           id="path1608-2-1-8-1"
           d="m -2192.6972,-3069.1231 c -0.6188,-1.6125 -1.1251,-30.4188 -1.1251,-64.0138 0,-45.0564 0.5789,-61.6608 2.2066,-63.2885 2.5582,-2.5583 123.9375,-3.1996 127.9133,-0.6758 1.814,1.1515 2.2167,15.5432 1.8388,65.7092 l -0.4839,64.2348 -64.6124,0.483 c -57.7215,0.4315 -64.7322,0.1703 -65.7373,-2.4489 z"
           style="fill:#dbdbdb;stroke:none;stroke-width:1.83880806" />
        <path
           id="path1606-1-7-9-9"
           d="m -1988.8686,-3068.524 c -0.4924,-1.2834 -0.6774,-30.8758 -0.411,-65.761 l 0.4844,-63.4276 h 65.2777 65.2776 v 65.2777 65.2777 l -64.8666,0.4833 c -51.0694,0.3805 -65.0571,-0.013 -65.7621,-1.8501 z"
           style="fill:#dbdbdb;stroke:none;stroke-width:1.83880806" />
        <path
           id="path1604-7-4-3-2"
           d="m -2590.5592,-3257.9473 c -24.5174,-24.5327 -44.577,-45.8464 -44.577,-47.3637 0,-3.6021 86.5253,-90.0734 90.1297,-90.0734 2.9511,0 91.9123,88.0284 91.9123,90.9486 0,2.3808 -88.6073,91.0934 -90.9853,91.0934 -1.0465,0 -21.9623,-20.0722 -46.4797,-44.6049 z"
           style="fill:#dbdbdb;stroke:none;stroke-width:1.83880806" />
        <path
           id="path1602-1-7-0-9"
           d="m -3231.6238,-3273.2308 c -0.6188,-1.6125 -1.125,-30.4188 -1.125,-64.0138 0,-45.0564 0.5789,-61.6608 2.2065,-63.2885 2.5583,-2.5583 123.9376,-3.1996 127.9134,-0.6758 1.8139,1.1515 2.2167,15.5432 1.8388,65.7092 l -0.484,64.2348 -64.6123,0.483 c -57.7215,0.4315 -64.7323,0.1703 -65.7374,-2.4489 z"
           style="fill:#dbdbdb;stroke:none;stroke-width:1.83880806" />
        <path
           id="path1600-4-3-8-4"
           d="m -3027.3921,-3271.5482 c -0.687,-0.687 -1.249,-29.4931 -1.249,-64.0137 0,-46.3652 0.5765,-63.3412 2.2065,-64.9712 3.4292,-3.4292 125.2895,-3.1346 128.1481,0.3098 1.4907,1.7961 1.9498,20.6105 1.6042,65.7374 l -0.4841,63.221 -64.4883,0.4829 c -35.4686,0.2655 -65.0505,-0.079 -65.7374,-0.7662 z"
           style="fill:#dbdbdb;stroke:none;stroke-width:1.83880806" />
        <path
           id="path1598-8-4-8-2"
           d="m -2192.5733,-3271.5482 c -0.6869,-0.687 -1.249,-29.4931 -1.249,-64.0137 0,-46.3652 0.5765,-63.3412 2.2066,-64.9712 2.5582,-2.5583 123.9375,-3.1996 127.9133,-0.6758 1.814,1.1515 2.2167,15.5432 1.8388,65.7092 l -0.4839,64.2348 -64.4884,0.4829 c -35.4686,0.2655 -65.0504,-0.079 -65.7374,-0.7662 z"
           style="fill:#dbdbdb;stroke:none;stroke-width:1.83880806" />
        <path
           id="path1596-7-8-6-0"
           d="m -1988.4656,-3271.5482 c -0.687,-0.687 -1.249,-29.4931 -1.249,-64.0137 0,-46.3652 0.5765,-63.3412 2.2065,-64.9712 3.4293,-3.4292 125.2895,-3.1346 128.1481,0.3098 1.4907,1.7961 1.9498,20.6105 1.6043,65.7374 l -0.4842,63.221 -64.4883,0.4829 c -35.4686,0.2655 -65.0504,-0.079 -65.7374,-0.7662 z"
           style="fill:#dbdbdb;stroke:none;stroke-width:1.83880806" />
        <path
           id="path1594-6-3-1-16"
           d="m -2447.0319,-3401.3107 c -24.5725,-24.4977 -44.6773,-45.8113 -44.6773,-47.3634 0,-3.0584 88.0213,-91.9762 91.0489,-91.9762 3.0078,0 90.9931,88.9628 90.9931,92.004 0,2.926 -88.1223,91.8768 -91.021,91.8768 -0.9166,0 -21.7713,-20.0435 -46.3437,-44.5412 z"
           style="fill:#dbdbdb;stroke:none;stroke-width:1.83880806" />
        <path
           id="path1592-3-6-4-7"
           d="m -2736.0226,-3403.4108 c -38.9055,-38.9298 -44.5248,-45.2569 -42.869,-48.2687 2.6272,-4.779 87.4278,-88.9708 89.614,-88.9708 0.9696,0 22.4205,20.67 47.6687,45.9334 l 45.9058,45.9334 -44.9503,45.0876 c -24.7227,24.7982 -46.2203,45.0876 -47.7725,45.0876 -1.5522,0 -22.9707,-20.1611 -47.5967,-44.8025 z"
           style="fill:#dbdbdb;stroke:none;stroke-width:1.83880806" />
        <path
           id="path1410-6-2-2-5"
           d="m -2590.5592,-3546.6402 c -24.5174,-24.5327 -44.577,-45.8463 -44.577,-47.3637 0,-3.6021 86.5253,-90.0734 90.1297,-90.0734 3.0157,0 91.9123,88.0615 91.9123,91.0489 0,2.4025 -88.6449,90.9931 -91.0489,90.9931 -1.0115,0 -21.8987,-20.0722 -46.4161,-44.6049 z"
           style="fill:#dbdbdb;stroke:none;stroke-width:1.83880806" />
        <path
           id="path1559-9-7-9-3"
           d="m -2544.0491,-3682.2381 c -2.4283,0 -89.2485,86.7259 -89.2485,89.1516 0,1.0115 19.6459,21.4995 43.6572,45.5267 24.0116,24.0272 43.8026,43.6843 43.9806,43.6843 2.8525,0 12.1706,-8.8943 48.3387,-46.1462 l 42.8979,-44.1853 -43.8729,-44.0129 c -24.1322,-24.2089 -44.7214,-44.0182 -45.753,-44.0182 z"
           style="fill:#b19f89;fill-opacity:1;stroke:none;stroke-width:1.83880806" />
        <path
           id="path1557-8-3-5-3"
           d="m -2688.4726,-3539.7108 -45.4567,45.4567 -45.462,45.462 44.0343,44.1691 c 24.2188,24.2955 45.2934,44.1745 46.8306,44.1745 3.6469,0 88.3273,-84.6186 88.3273,-88.2628 0,-1.533 -19.8619,-22.6359 -44.1369,-46.895 z"
           style="fill:#b19f89;fill-opacity:1;stroke:none;stroke-width:1.83880806" />
        <path
           id="path1555-9-3-2-4"
           d="m -2400.6866,-3538.8111 c -2.1166,0 -85.1278,82.496 -87.6755,87.1315 -1.655,3.0108 3.8535,9.2266 41.9496,47.3475 24.12,24.1358 44.6819,43.8836 45.6937,43.8836 2.4454,0 89.2107,-86.7706 89.2107,-89.2163 0,-2.3279 -86.8497,-89.1463 -89.1785,-89.1463 z"
           style="fill:#b19f89;fill-opacity:1;stroke:none;stroke-width:1.83880806" />
        <path
           id="path1553-6-4-0-88"
           d="m -1924.0816,-3400.9382 c -30.2427,0.1644 -60.3067,0.9674 -61.5856,2.2464 -1.6277,1.6274 -2.2088,18.1968 -2.2088,63.1318 0,33.5093 0.5624,61.4856 1.2497,62.1729 0.6874,0.6873 29.4398,1.0309 63.8968,0.765 l 62.6525,-0.4794 0.4849,-62.3992 c 0.3781,-48.6943 -0.03,-62.7189 -1.8425,-63.8699 -1.987,-1.2612 -32.4043,-1.732 -62.647,-1.5676 z"
           style="fill:#b19f89;fill-opacity:1;stroke:none;stroke-width:1.83880806" />
        <path
           id="path1551-9-9-9-8"
           d="m -2128.3294,-3400.9004 c -43.6261,0 -59.8207,0.5838 -61.4455,2.2087 -1.6276,1.6274 -2.2088,18.1968 -2.2088,63.1318 0,33.5092 0.5538,61.4771 1.2282,62.1514 0.6741,0.6742 29.6318,1.2228 64.3546,1.2228 h 63.1319 v -63.2395 c 0,-55.9723 -0.3348,-63.3723 -2.9091,-64.3601 -1.5997,-0.6139 -29.5674,-1.1151 -62.1513,-1.1151 z"
           style="fill:#b19f89;fill-opacity:1;stroke:none;stroke-width:1.83880806" />
        <path
           id="path1549-5-8-9-90"
           d="m -2961.4926,-3400.8466 c -30.0016,-0.1007 -60.212,0.222 -62.399,1.0612 -2.5729,0.9873 -2.9091,8.2774 -2.9091,63.1318 0,34.109 0.5624,62.5792 1.2498,63.2665 0.6873,0.6873 29.4397,1.0309 63.8967,0.765 l 62.647,-0.4794 0.4849,-62.3992 c 0.3781,-48.6943 -0.028,-62.7189 -1.837,-63.8699 -1.3408,-0.8511 -31.1317,-1.3753 -61.1333,-1.476 z"
           style="fill:#b19f89;fill-opacity:1;stroke:none;stroke-width:1.83880806" />
        <path
           id="path1547-3-4-1-8"
           d="m -3192.692,-3400.5719 c -23.706,0.053 -34.3546,0.5905 -35.7006,1.7077 -2.0378,1.6913 -2.5158,13.7182 -2.5158,63.1587 0,33.5877 0.5624,61.6311 1.2498,62.3184 0.6873,0.6873 29.4397,1.0308 63.8967,0.765 l 62.647,-0.4795 v -63.4389 -63.4388 l -61.381,-0.4849 c -10.9415,-0.086 -20.2944,-0.1255 -28.1961,-0.1078 z"
           style="fill:#b19f89;fill-opacity:1;stroke:none;stroke-width:1.83880806" />
        <path
           id="path1545-9-8-2-2"
           d="m -2544.0491,-3393.5471 c -2.4283,0 -89.2485,86.7313 -89.2485,89.1571 0,1.0114 19.6459,21.494 43.6572,45.5212 24.0116,24.0272 44.0843,43.6897 44.6056,43.6897 0.5213,0 21.1888,-20.2576 45.9305,-45.0149 l 44.9881,-45.0149 -44.029,-44.1691 c -24.216,-24.2929 -44.8723,-44.1691 -45.9039,-44.1691 z"
           style="fill:#b19f89;fill-opacity:1;stroke:none;stroke-width:1.83880806" />
        <path
           id="path1543-6-5-3-6"
           d="m -3195.8705,-3196.4858 c -24.5415,0.039 -32.6449,0.6064 -33.5079,1.9663 -1.7846,2.8111 -2.0543,123.4659 -0.2802,125.2401 0.6873,0.6873 29.4397,1.0308 63.8967,0.7649 l 62.647,-0.4794 v -63.4389 -63.4388 l -62.3938,-0.4849 c -12.1736,-0.095 -22.1813,-0.1423 -30.3618,-0.1294 z"
           style="fill:#b19f89;fill-opacity:1;stroke:none;stroke-width:1.83880806" />
        <path
           id="path1541-7-2-3-8"
           d="m -2153.7621,-3196.4637 c -23.7054,0.053 -34.3598,0.5905 -35.7058,1.7077 -2.0378,1.6913 -2.5158,13.7182 -2.5158,63.1588 0,33.5876 0.5624,61.631 1.2497,62.3183 0.6874,0.6873 29.4401,1.0309 63.8968,0.765 l 62.6525,-0.4795 v -63.4388 -63.4389 l -61.381,-0.4849 c -10.9418,-0.086 -20.2944,-0.1255 -28.1964,-0.1078 z"
           style="fill:#b19f89;fill-opacity:1;stroke:none;stroke-width:1.83880806" />
        <path
           id="path1539-8-5-1-6"
           d="m -3025.885,-3195.8711 -0.4849,61.5857 c -0.2675,33.8728 -0.077,62.639 0.4149,63.9237 0.7055,1.839 14.3063,2.2287 63.9237,1.8478 l 63.0241,-0.4795 v -63.4388 -63.4389 h -63.4389 z"
           style="fill:#b19f89;fill-opacity:1;stroke:none;stroke-width:1.83880806" />
        <path
           id="path1537-8-4-1-0"
           d="m -1986.9548,-3195.8711 -0.4849,61.5857 c -0.2675,33.8728 -0.083,62.639 0.4094,63.9237 0.7058,1.839 14.3062,2.2287 63.9237,1.8478 l 63.0296,-0.4795 v -63.4388 -63.4389 h -63.4389 z"
           style="fill:#b19f89;fill-opacity:1;stroke:none;stroke-width:1.83880806" />
        <path
           id="path1533-4-1-3-5"
           d="m -3278.8056,-2949.3775 -45.4564,45.4566 -45.4567,45.4567 44.1043,44.1367 c 24.2594,24.275 45.3511,44.1368 46.8681,44.1368 3.6456,0 88.2899,-84.6494 88.2899,-88.2951 0,-1.553 -19.879,-22.6388 -44.1745,-46.8572 z"
           style="fill:#b19f89;fill-opacity:1;stroke:none;stroke-width:1.83880806" />
        <path
           id="path1531-9-8-7-2"
           d="m -1810.4292,-2948.5533 c -2.1167,0 -85.1281,82.4961 -87.6756,87.1316 -1.6549,3.0108 3.8535,9.2266 41.9497,47.3474 24.12,24.1359 44.6819,43.8836 45.6936,43.8836 2.4455,0 89.2108,-86.7706 89.2108,-89.2163 0,-2.3279 -86.8497,-89.1463 -89.1785,-89.1463 z"
           style="fill:#b19f89;fill-opacity:1;stroke:none;stroke-width:1.83880806" />
        <path
           id="path1527-6-4-9-0"
           d="m -3423.0352,-2803.2892 c -2.4455,0 -89.2108,86.776 -89.2108,89.2217 0,1.0472 19.879,21.7176 44.1744,45.9361 l 44.1692,44.0344 45.4619,-45.462 45.4568,-45.4567 -44.1047,-44.1367 c -24.259,-24.275 -44.9351,-44.1368 -45.9468,-44.1368 z"
           style="fill:#b19f89;fill-opacity:1;stroke:none;stroke-width:1.83880806" />
        <path
           id="path1525-6-0-5-8"
           d="m -3134.3064,-2803.2892 c -2.4697,0 -89.2486,86.7527 -89.2486,89.2217 0,1.0472 19.692,21.5298 43.7596,45.5213 24.0679,23.9914 44.1405,43.625 44.6055,43.625 0.4651,0 21.0866,-20.2576 45.8283,-45.0149 l 44.9881,-45.0149 -44.0291,-44.1691 c -24.216,-24.2929 -44.8722,-44.1691 -45.9038,-44.1691 z"
           style="fill:#b19f89;fill-opacity:1;stroke:none;stroke-width:1.83880806" />
        <path
           id="path1523-3-9-0-8"
           d="m -1954.7504,-2803.2892 c -3.6045,0 -88.2899,84.6338 -88.2899,88.2358 0,1.5172 19.2306,22.005 42.7361,45.5267 23.5057,23.5217 43.9827,42.7631 45.4997,42.7631 3.6044,0 88.2898,-84.6285 88.2898,-88.2305 0,-3.6044 -84.6338,-88.2951 -88.2357,-88.2951 z"
           style="fill:#b19f89;fill-opacity:1;stroke:none;stroke-width:1.83880806" />
        <path
           id="path1521-8-8-1-72"
           d="m -1666.0542,-2803.2892 c -3.6044,0 -88.295,84.6338 -88.295,88.2358 0,1.5172 19.2357,22.005 42.7415,45.5267 23.5055,23.5217 43.9772,42.7631 45.4942,42.7631 3.6047,0 88.2898,-84.6285 88.2898,-88.2305 0,-3.6044 -84.6283,-88.2951 -88.2305,-88.2951 z"
           style="fill:#b19f89;fill-opacity:1;stroke:none;stroke-width:1.83880806" />
        <path
           id="path1517-6-0-9-9"
           d="m -3279.5326,-2659.8622 c -2.1718,0 -85.143,82.3397 -87.7512,87.083 -1.6201,2.9464 4.1578,9.4785 41.9119,47.3529 24.0858,24.1624 44.6353,43.9321 45.6669,43.9321 2.428,0 89.2486,-86.7313 89.2486,-89.1571 0,-2.3543 -86.7254,-89.2109 -89.0762,-89.2109 z"
           style="fill:#b19f89;fill-opacity:1;stroke:none;stroke-width:1.83880806" />
        <path
           id="path1515-1-4-0-4"
           d="m -1810.4292,-2659.8622 c -2.4267,0 -89.184,86.7942 -89.184,89.2217 0,1.0472 19.6919,21.5298 43.7596,45.5213 24.0678,23.9915 44.539,43.625 45.4945,43.625 2.3538,0 89.1084,-86.828 89.1084,-89.184 0,-2.4032 -86.7753,-89.184 -89.1785,-89.184 z"
           style="fill:#b19f89;fill-opacity:1;stroke:none;stroke-width:1.83880806" />
        <path
           id="path1513-3-4-6-7"
           d="m -2105.9189,-2362.013 c -35.6786,-0.2035 -82.2574,0.6477 -83.856,2.2464 -1.6276,1.6275 -2.2088,18.1968 -2.2088,63.1318 0,33.5093 0.5624,61.4857 1.2497,62.173 0.6874,0.6872 29.4401,1.0362 63.8968,0.7703 l 62.6525,-0.4848 0.4849,-62.3938 c 0.3781,-48.6943 -0.03,-62.7189 -1.8425,-63.8699 -1.4903,-0.9459 -18.9693,-1.4509 -40.3766,-1.573 z"
           style="fill:#b19f89;fill-opacity:1;stroke:none;stroke-width:1.83880806" />
        <path
           id="path1511-3-4-7-6"
           d="m -1922.6702,-2361.9752 c -32.6619,0 -60.697,0.5013 -62.2967,1.1151 -2.5729,0.9873 -2.9091,8.2828 -2.9091,63.1372 0,34.109 0.5624,62.5738 1.2497,63.2611 0.6874,0.6873 29.4398,1.0363 63.8968,0.7704 l 62.6525,-0.4849 0.4849,-61.381 c 0.3456,-43.7666 -0.1159,-62.1019 -1.6056,-63.8967 -1.6891,-2.0353 -13.4562,-2.5212 -61.4725,-2.5212 z"
           style="fill:#b19f89;fill-opacity:1;stroke:none;stroke-width:1.83880806" />
        <path
           id="path1509-7-4-1-0"
           d="m -2961.4926,-2361.9159 c -30.0016,-0.1007 -60.212,0.2165 -62.399,1.0559 -2.5729,0.9872 -2.9091,8.2827 -2.9091,63.1372 0,34.1089 0.5624,62.5738 1.2498,63.2611 0.6873,0.6873 29.4397,1.0362 63.8967,0.7703 l 62.647,-0.4848 0.4849,-62.3938 c 0.3781,-48.6943 -0.028,-62.7188 -1.837,-63.8698 -1.3408,-0.8511 -31.1317,-1.3753 -61.1333,-1.4761 z"
           style="fill:#b19f89;fill-opacity:1;stroke:none;stroke-width:1.83880806" />
        <path
           id="path1507-1-7-3-7"
           d="m -3192.692,-2361.6412 c -23.706,0.053 -34.3546,0.5906 -35.7006,1.7077 -2.0378,1.6913 -2.5158,13.7183 -2.5158,63.1588 0,33.5876 0.5624,61.6257 1.2498,62.313 0.6873,0.6872 29.4397,1.0362 63.8967,0.7703 l 62.647,-0.4848 v -63.4389 -63.4389 l -61.381,-0.4848 c -10.9415,-0.086 -20.2944,-0.1203 -28.1961,-0.1024 z"
           style="fill:#b19f89;fill-opacity:1;stroke:none;stroke-width:1.83880806" />
        <path
           id="path1505-4-8-3-6"
           d="m -2545.0078,-2213.0317 c -3.6044,0 -88.2898,84.6338 -88.2898,88.2358 0,1.5172 19.2305,22.005 42.736,45.5267 23.5057,23.5216 43.9827,42.763 45.4997,42.763 3.6045,0 88.2898,-84.6284 88.2898,-88.2304 0,-3.6044 -84.6338,-88.2951 -88.2357,-88.2951 z"
           style="fill:#b19f89;fill-opacity:1;stroke:none;stroke-width:1.83880806" />
        <path
           id="path1503-7-2-0-1"
           d="m -1903.6645,-2157.582 c -7.3545,0.011 -15.3136,0.053 -23.5308,0.1239 l -59.7595,0.5117 -0.4849,61.5858 c -0.2675,33.8728 -0.083,62.639 0.4094,63.9237 0.7058,1.839 14.3062,2.2341 63.9237,1.8531 l 63.0296,-0.4848 0.4849,-62.9379 0.4794,-62.9378 -4.1589,-1.0128 c -1.7167,-0.4185 -18.3289,-0.6546 -40.3929,-0.6249 z"
           style="fill:#b19f89;fill-opacity:1;stroke:none;stroke-width:1.83880806" />
        <path
           id="path1501-1-4-1-87"
           d="m -3229.9927,-2156.9463 -0.4849,61.5857 c -0.2675,33.8728 -0.077,62.639 0.4149,63.9237 0.7055,1.839 14.3063,2.2341 63.9238,1.8532 l 63.024,-0.4848 v -63.4389 -63.4389 h -63.4389 z"
           style="fill:#b19f89;fill-opacity:1;stroke:none;stroke-width:1.83880806" />
        <path
           id="path1499-9-1-0-5"
           d="m -3025.885,-2156.9463 -0.4849,61.5857 c -0.2675,33.8728 -0.077,62.639 0.4149,63.9237 0.7055,1.839 14.3063,2.2341 63.9237,1.8532 l 63.0241,-0.4848 v -63.4389 -63.4389 h -63.4389 z"
           style="fill:#b19f89;fill-opacity:1;stroke:none;stroke-width:1.83880806" />
        <path
           id="path1497-3-5-4-61"
           d="m -2191.0625,-2156.9463 -0.4849,61.5857 c -0.2675,33.8728 -0.083,62.639 0.4094,63.9237 0.7058,1.839 14.3063,2.2341 63.9237,1.8532 l 63.0296,-0.4848 v -63.4389 -63.4389 h -63.4389 z"
           style="fill:#b19f89;fill-opacity:1;stroke:none;stroke-width:1.83880806" />
        <path
           id="path1495-1-8-8-8"
           d="m -2401.5971,-2070.5043 -44.1369,44.1098 c -24.2747,24.2591 -44.1366,44.9353 -44.1366,45.9469 0,1.0114 19.6459,21.494 43.6573,45.5212 24.0116,24.0273 44.5117,43.6897 45.559,43.6897 1.0473,0 21.7229,-19.8789 45.9413,-44.1745 l 44.0346,-44.1745 -45.4619,-45.4566 z"
           style="fill:#b19f89;fill-opacity:1;stroke:none;stroke-width:1.83880806" />
        <path
           id="path1493-6-1-6-0"
           d="m -2689.3508,-2069.6047 c -2.4038,0 -89.2108,86.7546 -89.2108,89.1571 0,1.0114 19.6456,21.494 43.6572,45.5212 24.0117,24.0273 44.4828,43.6897 45.4943,43.6897 2.404,0 89.211,-86.7547 89.211,-89.1571 0,-2.404 -86.7493,-89.2109 -89.1517,-89.2109 z"
           style="fill:#b19f89;fill-opacity:1;stroke:none;stroke-width:1.83880806" />
        <path
           id="path1408-3-2-5-4"
           d="m -2545.0078,-1924.3353 c -3.6044,0 -88.2898,84.6285 -88.2898,88.2304 0,1.5173 19.2305,22.005 42.736,45.5268 23.5057,23.5215 43.9827,42.7683 45.4997,42.7683 3.6045,0 88.2898,-84.6338 88.2898,-88.2358 0,-3.6044 -84.6338,-88.2897 -88.2357,-88.2897 z"
           style="fill:#b19f89;fill-opacity:1;stroke:none;stroke-width:1.83880806" />
      </g>
    </g>
  </g>
</svg>
