<?xml version="1.0" encoding="UTF-8" standalone="no"?>
<svg
   xmlns:dc="http://purl.org/dc/elements/1.1/"
   xmlns:cc="http://creativecommons.org/ns#"
   xmlns:rdf="http://www.w3.org/1999/02/22-rdf-syntax-ns#"
   xmlns:svg="http://www.w3.org/2000/svg"
   xmlns="http://www.w3.org/2000/svg"
   id="svg7243"
   version="1.1"
   viewBox="0 0 79.374998 79.375002"
   height="300"
   width="300">
  <defs
     id="defs7237" />
  <metadata
     id="metadata7240">
    <rdf:RDF>
      <cc:Work
         rdf:about="">
        <dc:format>image/svg+xml</dc:format>
        <dc:type
           rdf:resource="http://purl.org/dc/dcmitype/StillImage" />
        <dc:title></dc:title>
      </cc:Work>
    </rdf:RDF>
  </metadata>
  <g
     transform="translate(0,-217.62498)"
     id="layer1">
    <g
       transform="matrix(0.11781914,0,0,0.11781914,-163.3871,177.02795)"
       id="g12763">
      <path
         id="path1658-4-2-3-2"
         d="m 1712.9658,963.46964 -14.2906,-14.29874 14.0044,-14.01297 c 7.7021,-7.70724 14.3943,-14.013 14.8707,-14.013 1.1334,0 28.026,26.91141 28.026,28.04552 0,0.74469 -27.3257,28.57807 -28.057,28.57807 -0.1441,0 -6.6941,-6.4347 -14.5535,-14.29888 z"
         style="fill:#e82110;fill-opacity:1;stroke:none;stroke-width:0.57195562;stroke-miterlimit:4;stroke-dasharray:none" />
      <path
         id="path1656-3-3-8-3"
         d="m 1668.2353,919.29978 c -7.3304,-7.30652 -13.4838,-13.77534 -13.6742,-14.37508 -0.2731,-0.85976 2.6031,-4.04166 13.5819,-15.02756 7.6603,-7.66517 14.1896,-13.93685 14.509,-13.93685 0.9287,0 28.3119,27.65965 28.3119,28.59778 0,1.30916 -26.9586,28.02589 -28.2794,28.02589 -0.6981,0 -6.1472,-5.00971 -14.4492,-13.28418 z"
         style="fill:#e82110;fill-opacity:1;stroke:none;stroke-width:0.57195562;stroke-miterlimit:4;stroke-dasharray:none" />
      <path
         id="path1654-0-3-4-3"
         d="m 1757.4196,918.68738 c -7.6199,-7.64331 -13.8544,-14.13 -13.8544,-14.41522 0,-0.90709 27.6709,-28.31187 28.5865,-28.31187 0.9516,0 28.6091,27.37877 28.6091,28.32066 0,0.93554 -27.6715,28.30301 -28.6175,28.30301 -0.4781,0 -7.1036,-6.25356 -14.7237,-13.89658 z"
         style="fill:#e82110;fill-opacity:1;stroke:none;stroke-width:0.57195562;stroke-miterlimit:4;stroke-dasharray:none" />
      <path
         id="path1652-9-3-7-1"
         d="m 1514.3326,889.00811 c -1.0733,-1.07307 -0.9883,-38.97286 0.088,-39.86712 0.5587,-0.46382 6.411,-0.60661 20.4476,-0.4989 l 19.6647,0.15063 v 20.3042 20.30447 l -19.754,0.15041 c -14.886,0.11319 -19.9247,-0.0217 -20.4474,-0.54332 z"
         style="fill:#e82110;fill-opacity:1;stroke:none;stroke-width:0.57195562;stroke-miterlimit:4;stroke-dasharray:none" />
      <path
         id="path1650-4-8-1-7"
         d="m 1577.3894,888.97612 c -0.1528,-0.39909 -0.2109,-9.60363 -0.127,-20.45475 l 0.1506,-19.72873 h 20.3045 20.3043 v 20.3042 20.3045 l -20.1765,0.15017 c -15.8851,0.11859 -20.2358,-0.003 -20.4551,-0.57547 z"
         style="fill:#e82110;fill-opacity:1;stroke:none;stroke-width:0.57195562;stroke-miterlimit:4;stroke-dasharray:none" />
      <path
         id="path1648-1-3-8-8"
         d="m 1837.1441,888.78986 c -0.1937,-0.50155 -0.3503,-9.48172 -0.3503,-19.95565 0,-15.41637 0.1484,-19.16752 0.783,-19.69322 0.5584,-0.46382 6.4105,-0.60661 20.4472,-0.4989 l 19.6647,0.15063 v 20.3042 20.30447 l -20.0973,0.15041 c -17.9543,0.13428 -20.1346,0.0529 -20.4473,-0.76176 z"
         style="fill:#e82110;fill-opacity:1;stroke:none;stroke-width:0.57195562;stroke-miterlimit:4;stroke-dasharray:none" />
      <path
         id="path1646-5-8-63-7"
         d="m 1900.6695,889.31334 c -0.213,-0.21389 -0.3886,-9.17374 -0.3886,-19.91138 0,-14.42175 0.1786,-19.70207 0.6866,-20.20909 1.0665,-1.06659 38.9708,-0.97515 39.8599,0.096 0.4635,0.55907 0.6066,6.41112 0.499,20.44761 l -0.1506,19.66476 -20.0587,0.1502 c -11.0326,0.0824 -20.2339,-0.0249 -20.4476,-0.23865 z"
         style="fill:#e82110;fill-opacity:1;stroke:none;stroke-width:0.57195562;stroke-miterlimit:4;stroke-dasharray:none" />
      <path
         id="path1644-6-0-4-0"
         d="m 1713.3904,874.09723 c -7.6264,-7.63088 -13.8656,-14.2603 -13.8656,-14.73219 0,-0.47188 6.3064,-7.16058 14.0143,-14.86365 l 14.0145,-14.00583 14.4375,14.43749 14.4375,14.43757 -14.2921,14.30042 c -7.8604,7.86519 -14.4241,14.30041 -14.5862,14.30041 -0.1614,0 -6.534,-6.24337 -14.1599,-13.87422 z"
         style="fill:#e82110;fill-opacity:1;stroke:none;stroke-width:0.57195562;stroke-miterlimit:4;stroke-dasharray:none" />
      <path
         id="path1642-0-0-5-0"
         d="m 1514.0275,825.82614 c -0.213,-0.21368 -0.3884,-9.17363 -0.3884,-19.9113 0,-14.42183 0.1786,-19.70217 0.6862,-20.20914 0.796,-0.79568 38.5505,-0.99502 39.7872,-0.21023 0.5642,0.35832 0.6896,4.83491 0.5719,20.4389 l -0.1506,19.97988 -20.0592,0.1502 c -11.0321,0.0829 -20.2336,-0.0249 -20.4473,-0.23818 z"
         style="fill:#e82110;fill-opacity:1;stroke:none;stroke-width:0.57195562;stroke-miterlimit:4;stroke-dasharray:none" />
      <path
         id="path1640-8-9-1-6"
         d="m 1577.5148,825.82614 c -0.213,-0.21368 -0.3886,-9.17363 -0.3886,-19.9113 0,-14.42183 0.1786,-19.70217 0.6862,-20.20914 1.0665,-1.06661 38.9712,-0.97509 39.8601,0.0964 0.4638,0.55862 0.6064,6.41064 0.4988,20.44729 l -0.1506,19.66476 -20.0589,0.15021 c -11.0324,0.0828 -20.2335,-0.0251 -20.4472,-0.23818 z"
         style="fill:#e82110;fill-opacity:1;stroke:none;stroke-width:0.57195562;stroke-miterlimit:4;stroke-dasharray:none" />
      <path
         id="path1638-0-3-4-8"
         d="m 1837.1824,825.82614 c -0.2131,-0.21368 -0.3886,-9.17363 -0.3886,-19.9113 0,-14.42183 0.1786,-19.70217 0.6864,-20.20914 1.0667,-1.06661 38.9709,-0.97509 39.8601,0.0964 0.4637,0.55862 0.6066,6.41064 0.4988,20.44729 l -0.1506,19.66476 -20.0587,0.15021 c -11.0326,0.0828 -20.2339,-0.0251 -20.4476,-0.23818 z"
         style="fill:#e82110;fill-opacity:1;stroke:none;stroke-width:0.57195562;stroke-miterlimit:4;stroke-dasharray:none" />
      <path
         id="path1636-8-8-8-6"
         d="m 1900.6695,825.82614 c -0.213,-0.21368 -0.3886,-9.17363 -0.3886,-19.9113 0,-14.42183 0.1786,-19.70217 0.6866,-20.20914 1.0665,-1.06661 38.9708,-0.97509 39.8599,0.0964 0.4635,0.55862 0.6066,6.41064 0.499,20.44729 l -0.1506,19.66476 -20.0587,0.15021 c -11.0326,0.0828 -20.2339,-0.0251 -20.4476,-0.23818 z"
         style="fill:#e82110;fill-opacity:1;stroke:none;stroke-width:0.57195562;stroke-miterlimit:4;stroke-dasharray:none" />
      <path
         id="path1634-2-8-3-2"
         d="m 1727.541,553.3777 c -0.4681,0 -8.7668,7.91494 -18.4435,17.58819 l -17.5926,17.58818 -25.3866,0.15789 -25.3866,0.1623 -0.3421,1.26757 c -0.187,0.69836 -0.3466,12.20836 -0.3466,25.57964 v 24.31204 l -17.4478,17.43905 c -9.5947,9.59055 -17.4434,17.82723 -17.4434,18.30311 0,0.47562 7.8403,8.70439 17.4259,18.28558 l 17.4303,17.42153 0.1579,25.35155 c 0.1375,21.79291 0.2801,25.42506 1.0175,25.89102 0.5059,0.31981 11.0702,0.54527 25.742,0.54828 l 24.8822,0.0131 17.7241,17.72856 h -0.013 c 9.7481,9.75192 17.9824,17.73974 18.2987,17.75485 0.3165,0.0127 8.4413,-7.96827 18.0575,-17.73294 l 17.4829,-17.75485 h 24.9437 c 21.9126,0 25.0531,-0.10528 25.8428,-0.89477 0.7892,-0.78967 0.8991,-3.93484 0.8991,-25.88664 v -24.98312 l 17.4435,-17.43905 c 9.5944,-9.59082 17.4434,-17.82748 17.4434,-18.30314 0,-0.47588 -7.849,-8.7126 -17.4434,-18.30311 l -17.4435,-17.43905 v -24.88224 c -0.01,-13.68572 -0.2082,-25.19612 -0.4517,-25.57962 -0.3351,-0.52724 -6.6118,-0.73831 -25.7288,-0.85969 l -25.2814,-0.15789 -17.5925,-17.58818 c -9.6767,-9.67325 -17.9799,-17.58819 -18.4479,-17.58819 z m -0.3158,74.43618 c 28.4728,-0.3307 51.0752,24.13374 48.2776,53.11106 -2.1872,22.65857 -19.9211,40.3035 -43.0933,42.88273 -2.8313,0.31513 -5.405,0.54309 -5.7194,0.5044 -0.3144,-0.0386 -2.2448,-0.26685 -4.2896,-0.5088 -20.1095,-2.37858 -36.3644,-16.58635 -41.5406,-36.30359 -1.5685,-5.97457 -1.4548,-17.94553 0.2237,-23.8252 5.8465,-20.47904 22.6708,-34.35029 43.3652,-35.75094 0.93,-0.063 1.8579,-0.099 2.7764,-0.10966 z m 1.4956,21.8383 c -4.2549,-0.1225 -8.658,0.80945 -12.895,2.90359 -9.988,4.93633 -15.8701,16.24832 -14.1671,27.25073 1.5575,10.06356 8.7475,18.30004 18.7418,21.47425 3.53,1.121 11.051,0.98121 15.1056,-0.2807 8.4643,-2.63422 15.0415,-9.39925 17.5136,-18.01365 0.7026,-2.44644 0.9048,-4.82317 0.7369,-8.65813 -0.2064,-4.71917 -0.461,-5.75427 -2.3992,-9.67569 -4.6233,-9.35505 -13.2756,-14.73087 -22.6366,-15.0004 z"
         style="fill:#e82110;fill-opacity:1;stroke:#ffffff;stroke-width:0.57195562;stroke-miterlimit:4;stroke-dasharray:none" />
      <path
         id="path1628-1-4-2-2"
         d="m 1484.6078,735.11208 c -7.6259,-7.63098 -13.8656,-14.13182 -13.8656,-14.44625 0,-0.92877 27.6681,-28.30301 28.6067,-28.30301 1.3269,0 28.0169,26.9708 28.0169,28.31169 0,1.34622 -26.6928,28.31179 -28.0255,28.31179 -0.4768,0 -7.1062,-6.24366 -14.7325,-13.87422 z"
         style="fill:#e82110;fill-opacity:1;stroke:none;stroke-width:0.57195562;stroke-miterlimit:4;stroke-dasharray:none" />
      <path
         id="path1626-8-5-8-6"
         d="m 1941.6004,735.11208 c -7.6259,-7.63098 -13.8656,-14.24631 -13.8656,-14.70073 0,-1.33411 26.9545,-28.04853 28.3003,-28.04853 1.3676,0 28.3233,26.68117 28.3233,28.03427 0,0.93805 -27.3913,28.58921 -28.3205,28.58921 -0.3144,0 -6.8116,-6.24366 -14.4375,-13.87422 z"
         style="fill:#e82110;fill-opacity:1;stroke:none;stroke-width:0.57195562;stroke-miterlimit:4;stroke-dasharray:none" />
      <path
         id="path1624-7-0-5-9"
         d="m 1439.9952,690.49962 c -7.6259,-7.63095 -13.8653,-14.26056 -13.8653,-14.73245 0,-1.1204 26.9136,-28.01688 28.0345,-28.01688 0.9454,0 28.5889,27.39477 28.5889,28.33139 0,0.73936 -27.602,28.29219 -28.3427,28.29219 -0.3026,0 -6.789,-6.24366 -14.4154,-13.87425 z"
         style="fill:#e82110;fill-opacity:1;stroke:none;stroke-width:0.57195562;stroke-miterlimit:4;stroke-dasharray:none" />
      <path
         id="path1622-4-9-2-5"
         d="m 1529.7923,690.49962 c -7.6259,-7.63095 -13.8655,-14.26056 -13.8655,-14.73245 0,-1.1204 26.9134,-28.01688 28.0347,-28.01688 0.4719,0 7.1252,6.27097 14.7849,13.93552 12.1014,12.10905 13.8492,14.07703 13.3342,15.01394 -0.8173,1.48643 -27.194,27.67412 -27.8744,27.67412 -0.3013,0 -6.7875,-6.24366 -14.4139,-13.87425 z"
         style="fill:#e82110;fill-opacity:1;stroke:none;stroke-width:0.57195562;stroke-miterlimit:4;stroke-dasharray:none" />
      <path
         id="path1620-4-4-5-0"
         d="m 1897.1481,690.648 c -7.7143,-7.69064 -14.0256,-14.3782 -14.0256,-14.86093 0,-1.13374 26.9007,-28.03678 28.0345,-28.03678 0.4719,0 7.1602,6.30647 14.8634,14.01421 l 14.0059,14.0145 -14.4262,14.42604 -14.4263,14.42603 z"
         style="fill:#e82110;fill-opacity:1;stroke:none;stroke-width:0.57195562;stroke-miterlimit:4;stroke-dasharray:none" />
      <path
         id="path1618-9-8-17-0"
         d="m 1986.3604,690.07505 -14.2904,-14.2992 14.0042,-14.0126 c 7.7025,-7.7071 14.3942,-14.01296 14.8713,-14.01296 1.1259,0 28.0255,26.90767 28.0255,28.03435 0,0.75237 -27.2966,28.58923 -28.0343,28.58923 -0.1571,0 -6.7167,-6.43464 -14.5763,-14.29882 z"
         style="fill:#e82110;fill-opacity:1;stroke:none;stroke-width:0.57195562;stroke-miterlimit:4;stroke-dasharray:none" />
      <path
         id="path1616-3-9-7-2"
         d="m 1484.3104,645.57793 c -7.4621,-7.48631 -13.5682,-13.99183 -13.5682,-14.45748 0,-0.91447 27.435,-28.5547 28.3433,-28.5547 0.9079,0 28.2803,27.67946 28.2803,28.59761 0,1.34745 -26.9611,28.02595 -28.3228,28.02595 -0.7584,0 -5.8954,-4.7462 -14.7326,-13.61138 z"
         style="fill:#e82110;fill-opacity:1;stroke:none;stroke-width:0.57195562;stroke-miterlimit:4;stroke-dasharray:none" />
      <path
         id="path1614-3-5-2-6"
         d="m 1941.303,645.57793 c -7.4626,-7.48631 -13.5682,-13.98686 -13.5682,-14.44625 0,-0.92258 27.4058,-28.56593 28.3205,-28.56593 0.923,0 28.3031,27.6648 28.3031,28.59761 0,1.34745 -26.9616,28.02595 -28.3233,28.02595 -0.7579,0 -5.8951,-4.7462 -14.7321,-13.61138 z"
         style="fill:#e82110;fill-opacity:1;stroke:none;stroke-width:0.57195562;stroke-miterlimit:4;stroke-dasharray:none" />
      <path
         id="path1612-9-1-0-2"
         d="m 1514.3326,565.85346 c -1.0733,-1.07339 -0.9883,-38.97287 0.088,-39.86744 0.5587,-0.46352 6.411,-0.60662 20.4476,-0.499 l 19.6647,0.15063 v 20.3045 20.30424 l -19.754,0.15042 c -14.886,0.11298 -19.9247,-0.0217 -20.4474,-0.5434 z"
         style="fill:#e82110;fill-opacity:1;stroke:none;stroke-width:0.57195562;stroke-miterlimit:4;stroke-dasharray:none" />
      <path
         id="path1610-4-5-6-4"
         d="m 1577.5148,566.15827 c -0.213,-0.21368 -0.3886,-9.17364 -0.3886,-19.91135 0,-14.42167 0.1786,-19.70201 0.6862,-20.20902 1.0665,-1.06659 38.9712,-0.97476 39.8601,0.0964 0.4638,0.55861 0.6064,6.41096 0.4988,20.4473 l -0.1506,19.66468 -20.0589,0.1502 c -11.0324,0.0829 -20.2335,-0.025 -20.4472,-0.23828 z"
         style="fill:#e82110;fill-opacity:1;stroke:none;stroke-width:0.57195562;stroke-miterlimit:4;stroke-dasharray:none" />
      <path
         id="path1608-2-1-3-0"
         d="m 1837.1441,565.6351 c -0.1937,-0.50167 -0.3503,-9.46169 -0.3503,-19.91137 0,-14.01481 0.1807,-19.17942 0.6864,-19.68583 0.7958,-0.79564 38.5507,-0.99499 39.7872,-0.21024 0.5642,0.35834 0.6894,4.83492 0.5717,20.43891 l -0.1506,19.9798 -20.0973,0.15021 c -17.9541,0.13449 -20.1347,0.0532 -20.4473,-0.76146 z"
         style="fill:#e82110;fill-opacity:1;stroke:none;stroke-width:0.57195562;stroke-miterlimit:4;stroke-dasharray:none" />
      <path
         id="path1606-1-7-6-1"
         d="m 1900.544,565.82148 c -0.1527,-0.39939 -0.2108,-9.60396 -0.1269,-20.45477 l 0.1506,-19.7291 h 20.3043 20.3045 v 20.30448 20.30426 l -20.1767,0.15042 c -15.8849,0.11814 -20.2358,-0.002 -20.4551,-0.57538 z"
         style="fill:#e82110;fill-opacity:1;stroke:none;stroke-width:0.57195562;stroke-miterlimit:4;stroke-dasharray:none" />
      <path
         id="path1604-7-4-8-8"
         d="m 1713.3904,506.90167 c -7.6264,-7.63056 -13.8656,-14.26026 -13.8656,-14.73207 0,-1.12041 26.9134,-28.01726 28.0343,-28.01726 0.9178,0 28.5894,27.38112 28.5894,28.28941 0,0.74062 -27.5614,28.33415 -28.301,28.33415 -0.3254,0 -6.8312,-6.24327 -14.4571,-13.87423 z"
         style="fill:#e82110;fill-opacity:1;stroke:none;stroke-width:0.57195562;stroke-miterlimit:4;stroke-dasharray:none" />
      <path
         id="path1602-1-7-6-9"
         d="m 1513.989,502.14797 c -0.1915,-0.50174 -0.3499,-9.46176 -0.3499,-19.91135 0,-14.01449 0.1807,-19.17951 0.6862,-19.68553 0.796,-0.79603 38.5505,-0.99538 39.7872,-0.21024 0.5642,0.35797 0.6896,4.83461 0.5719,20.43852 l -0.1506,19.98013 -20.0977,0.1502 c -17.9539,0.13406 -20.1347,0.0527 -20.4473,-0.76177 z"
         style="fill:#e82110;fill-opacity:1;stroke:none;stroke-width:0.57195562;stroke-miterlimit:4;stroke-dasharray:none" />
      <path
         id="path1600-4-3-3-1"
         d="m 1577.5148,502.67116 c -0.213,-0.21368 -0.3886,-9.17373 -0.3886,-19.91105 0,-14.42167 0.1786,-19.70201 0.6862,-20.20902 1.0665,-1.06689 38.9712,-0.97515 39.8601,0.096 0.4638,0.55861 0.6064,6.41096 0.4988,20.4476 l -0.1506,19.66468 -20.0589,0.1502 c -11.0324,0.0824 -20.2335,-0.025 -20.4472,-0.23858 z"
         style="fill:#e82110;fill-opacity:1;stroke:none;stroke-width:0.57195562;stroke-miterlimit:4;stroke-dasharray:none" />
      <path
         id="path1598-8-4-9-2"
         d="m 1837.1824,502.67116 c -0.2131,-0.21368 -0.3886,-9.17373 -0.3886,-19.91105 0,-14.42167 0.1786,-19.70201 0.6864,-20.20902 0.7958,-0.79603 38.5507,-0.99538 39.7872,-0.21024 0.5642,0.35797 0.6894,4.83461 0.5717,20.43852 l -0.1506,19.98013 -20.0587,0.1502 c -11.0326,0.0824 -20.2339,-0.025 -20.4476,-0.23858 z"
         style="fill:#e82110;fill-opacity:1;stroke:none;stroke-width:0.57195562;stroke-miterlimit:4;stroke-dasharray:none" />
      <path
         id="path1596-7-8-8-6"
         d="m 1900.6695,502.67116 c -0.213,-0.21368 -0.3886,-9.17373 -0.3886,-19.91105 0,-14.42167 0.1786,-19.70201 0.6866,-20.20902 1.0665,-1.06689 38.9708,-0.97515 39.8599,0.096 0.4635,0.55861 0.6066,6.41096 0.499,20.4476 l -0.1506,19.66468 -20.0587,0.1502 c -11.0326,0.0824 -20.2339,-0.025 -20.4476,-0.23858 z"
         style="fill:#e82110;fill-opacity:1;stroke:none;stroke-width:0.57195562;stroke-miterlimit:4;stroke-dasharray:none" />
      <path
         id="path1594-6-3-16-0"
         d="m 1758.034,462.30909 c -7.6434,-7.62005 -13.8966,-14.24935 -13.8966,-14.73217 0,-0.95142 27.3786,-28.60912 28.3201,-28.60912 0.9356,0 28.3033,27.67166 28.3033,28.61759 0,0.91007 -27.4103,28.57801 -28.3117,28.57801 -0.2853,0 -6.772,-6.23428 -14.4151,-13.85431 z"
         style="fill:#e82110;fill-opacity:1;stroke:none;stroke-width:0.57195562;stroke-miterlimit:4;stroke-dasharray:none" />
      <path
         id="path1592-3-6-6-3"
         d="m 1668.1441,461.65584 c -12.1012,-12.10905 -13.8492,-14.07701 -13.3343,-15.01386 0.8173,-1.48651 27.1942,-27.67418 27.8742,-27.67418 0.3017,0 6.9741,6.42934 14.8273,14.28765 l 14.2789,14.28729 -13.9817,14.0245 c -7.6899,7.7133 -14.3767,14.0242 -14.8593,14.0242 -0.4829,0 -7.1452,-6.27105 -14.8051,-13.9356 z"
         style="fill:#e82110;fill-opacity:1;stroke:none;stroke-width:0.57195562;stroke-miterlimit:4;stroke-dasharray:none" />
      <path
         id="path1410-6-2-6-1"
         d="m 1713.3904,417.10462 c -7.6264,-7.63058 -13.8656,-14.26026 -13.8656,-14.73209 0,-1.12039 26.9134,-28.01726 28.0343,-28.01726 0.9381,0 28.5894,27.39142 28.5894,28.32048 0,0.74751 -27.573,28.3031 -28.3206,28.3031 -0.3148,0 -6.8116,-6.24327 -14.4375,-13.87423 z"
         style="fill:#e82110;fill-opacity:1;stroke:none;stroke-width:0.57195562;stroke-miterlimit:4;stroke-dasharray:none" />
      <path
         id="path1559-9-7-98-5"
         d="m 1727.8572,374.92761 c -0.7555,0 -27.7608,26.97555 -27.7608,27.73013 0,0.31476 6.1109,6.68749 13.5793,14.16106 7.4691,7.47349 13.625,13.58771 13.6803,13.58771 0.8872,0 3.7858,-2.76644 15.0356,-14.35353 l 13.3435,-13.74363 -13.6467,-13.69007 c -7.5065,-7.53013 -13.9106,-13.69167 -14.2312,-13.69167 z"
         style="fill:#e82110;fill-opacity:1;stroke:none;stroke-width:0.57195562;stroke-miterlimit:4;stroke-dasharray:none" />
      <path
         id="path1557-8-3-59-8"
         d="m 1682.9343,419.26018 -14.1391,14.1393 -14.1407,14.14081 13.6968,13.7386 c 7.5332,7.55685 14.0883,13.74021 14.5662,13.74021 1.1345,0 27.4742,-26.32016 27.4742,-27.45393 0,-0.47686 -6.1779,-7.04092 -13.7287,-14.58654 z"
         style="fill:#e82110;fill-opacity:1;stroke:none;stroke-width:0.57195562;stroke-miterlimit:4;stroke-dasharray:none" />
      <path
         id="path1555-9-3-4-7"
         d="m 1772.4493,419.54012 c -0.658,0 -26.4787,25.66015 -27.271,27.10186 -0.5148,0.93655 1.1986,2.87001 13.0482,14.72744 7.5024,7.50708 13.8981,13.64968 14.2129,13.64968 0.7605,0 27.7488,-26.9896 27.7488,-27.75036 0,-0.72413 -27.0143,-27.72862 -27.7389,-27.72862 z"
         style="fill:#e82110;fill-opacity:1;stroke:none;stroke-width:0.57195562;stroke-miterlimit:4;stroke-dasharray:none" />
      <path
         id="path1553-6-4-05-4"
         d="m 1920.696,462.4248 c -9.4071,0.0512 -18.7584,0.30107 -19.1558,0.69894 -0.5064,0.50602 -0.6871,5.6601 -0.6871,19.63698 0,10.42288 0.1743,19.12472 0.3884,19.33872 0.2152,0.21369 9.1572,0.3204 19.8749,0.23796 l 19.4881,-0.14934 0.1506,-19.40907 c 0.1184,-15.14605 0,-19.50854 -0.5733,-19.86655 -0.618,-0.39223 -10.079,-0.53869 -19.4861,-0.48771 z"
         style="fill:#e82110;fill-opacity:1;stroke:none;stroke-width:0.57195562;stroke-miterlimit:4;stroke-dasharray:none" />
      <path
         id="path1551-9-9-1-1"
         d="m 1857.1652,462.43661 c -13.5697,0 -18.6069,0.18162 -19.1124,0.68713 -0.5063,0.50602 -0.6871,5.6601 -0.6871,19.63698 0,10.42288 0.1722,19.12226 0.382,19.33184 0.2087,0.20959 9.217,0.38048 20.0176,0.38048 h 19.637 V 482.8024 c 0,-17.40991 -0.1033,-19.71163 -0.9049,-20.01897 -0.4977,-0.19087 -9.197,-0.34682 -19.3322,-0.34682 z"
         style="fill:#e82110;fill-opacity:1;stroke:none;stroke-width:0.57195562;stroke-miterlimit:4;stroke-dasharray:none" />
      <path
         id="path1549-5-8-7-5"
         d="m 1598.0123,462.45342 c -9.3317,-0.0314 -18.7286,0.0691 -19.4088,0.33001 -0.8003,0.30734 -0.9049,2.57486 -0.9049,19.63699 0,10.60956 0.1743,19.46502 0.3888,19.67902 0.2131,0.21369 9.1572,0.3204 19.875,0.23796 l 19.4861,-0.14934 0.1506,-19.40907 c 0.1184,-15.14605 0,-19.50854 -0.5713,-19.86655 -0.4168,-0.26468 -9.6831,-0.42765 -19.0153,-0.45909 z"
         style="fill:#e82110;fill-opacity:1;stroke:none;stroke-width:0.57195562;stroke-miterlimit:4;stroke-dasharray:none" />
      <path
         id="path1547-3-4-3-3"
         d="m 1526.0986,462.53898 c -7.3735,0.0151 -10.6859,0.18356 -11.1045,0.53087 -0.6339,0.52634 -0.7826,4.26731 -0.7826,19.64546 0,10.44746 0.1743,19.17013 0.3886,19.38413 0.213,0.21369 9.1574,0.3204 19.875,0.23796 l 19.4863,-0.14934 v -19.73253 -19.73252 l -19.0925,-0.15085 c -3.4035,-0.028 -6.3126,-0.0389 -8.7703,-0.0331 z"
         style="fill:#e82110;fill-opacity:1;stroke:none;stroke-width:0.57195562;stroke-miterlimit:4;stroke-dasharray:none" />
      <path
         id="path1545-9-8-4-8"
         d="m 1727.8572,464.72406 c -0.7555,0 -27.7608,26.97738 -27.7608,27.73198 0,0.3145 6.1109,6.68562 13.5793,14.15921 7.4691,7.47349 13.7126,13.58962 13.8746,13.58962 0.1614,0 6.5909,-6.30119 14.2865,-14.00177 l 13.9936,-14.00184 -13.6951,-13.7386 c -7.5321,-7.55623 -13.9575,-13.7386 -14.2781,-13.7386 z"
         style="fill:#e82110;fill-opacity:1;stroke:none;stroke-width:0.57195562;stroke-miterlimit:4;stroke-dasharray:none" />
      <path
         id="path1543-6-5-9-7"
         d="m 1525.1098,526.01929 c -7.6332,0.0129 -10.1542,0.18851 -10.4225,0.61148 -0.5548,0.87434 -0.6389,38.40374 -0.088,38.95555 0.213,0.2139 9.1574,0.32063 19.8749,0.23789 l 19.4864,-0.14891 v -19.73246 -19.73253 l -19.4076,-0.15084 c -3.7867,-0.028 -6.8992,-0.0441 -9.4441,-0.04 z"
         style="fill:#e82110;fill-opacity:1;stroke:none;stroke-width:0.57195562;stroke-miterlimit:4;stroke-dasharray:none" />
      <path
         id="path1541-7-2-8-2"
         d="m 1849.2546,526.02609 c -7.3735,0.0151 -10.6875,0.18356 -11.1062,0.53126 -0.6338,0.52601 -0.7827,4.26692 -0.7827,19.64516 0,10.44737 0.1743,19.1701 0.3889,19.38411 0.213,0.21368 9.1572,0.32063 19.8749,0.23789 l 19.4879,-0.14934 v -19.73246 -19.73222 l -19.0926,-0.15085 c -3.4034,-0.028 -6.3123,-0.0392 -8.7702,-0.0336 z"
         style="fill:#e82110;fill-opacity:1;stroke:none;stroke-width:0.57195562;stroke-miterlimit:4;stroke-dasharray:none" />
      <path
         id="path1539-8-5-5-4"
         d="m 1577.9835,526.21055 -0.1506,19.15584 c -0.084,10.53607 -0.026,19.48366 0.1291,19.88335 0.2193,0.57204 4.4497,0.69332 19.8829,0.57477 l 19.6038,-0.14934 v -19.73246 -19.73222 h -19.7325 z"
         style="fill:#e82110;fill-opacity:1;stroke:none;stroke-width:0.57195562;stroke-miterlimit:4;stroke-dasharray:none" />
      <path
         id="path1537-8-4-8-0"
         d="m 1901.1395,526.21055 -0.1507,19.15584 c -0.084,10.53607 -0.026,19.48366 0.127,19.88335 0.2195,0.57204 4.4501,0.69332 19.8834,0.57477 l 19.6053,-0.14934 v -19.73246 -19.73222 h -19.7325 z"
         style="fill:#e82110;fill-opacity:1;stroke:none;stroke-width:0.57195562;stroke-miterlimit:4;stroke-dasharray:none" />
      <path
         id="path1533-4-1-7-8"
         d="m 1499.3132,602.88142 -14.1388,14.13928 -14.1395,14.13891 13.7186,13.72868 c 7.5458,7.55065 14.1061,13.72867 14.578,13.72867 1.1341,0 27.4624,-26.32977 27.4624,-27.46382 0,-0.48306 -6.1833,-7.04184 -13.7401,-14.57472 z"
         style="fill:#e82110;fill-opacity:1;stroke:none;stroke-width:0.57195562;stroke-miterlimit:4;stroke-dasharray:none" />
      <path
         id="path1531-9-8-1-6"
         d="m 1956.0474,603.13777 c -0.6585,0 -26.4792,25.66007 -27.2715,27.10208 -0.5147,0.93655 1.1986,2.8701 13.0485,14.72715 7.5024,7.50745 13.8983,13.64996 14.2127,13.64996 0.7609,0 27.7487,-26.9898 27.7487,-27.75035 0,-0.72407 -27.0143,-27.72884 -27.7384,-27.72884 z"
         style="fill:#e82110;fill-opacity:1;stroke:none;stroke-width:0.57195562;stroke-miterlimit:4;stroke-dasharray:none" />
      <path
         id="path1527-6-4-5-8"
         d="m 1454.4513,648.32163 c -0.7609,0 -27.7488,26.99144 -27.7488,27.75228 0,0.32567 6.1833,6.75531 13.7401,14.28818 l 13.7386,13.69701 14.1408,-14.14082 14.1392,-14.13928 -13.7185,-13.7287 c -7.5459,-7.55065 -13.977,-13.72867 -14.2914,-13.72867 z"
         style="fill:#e82110;fill-opacity:1;stroke:none;stroke-width:0.57195562;stroke-miterlimit:4;stroke-dasharray:none" />
      <path
         id="path1525-6-0-9-2"
         d="m 1544.2591,648.32163 c -0.768,0 -27.7602,26.98424 -27.7602,27.75228 0,0.32567 6.125,6.69684 13.611,14.15915 7.4863,7.46265 13.73,13.56939 13.8746,13.56939 0.1442,0 6.5588,-6.30084 14.2547,-14.00146 l 13.9933,-14.00177 -13.6951,-13.7386 c -7.5323,-7.55631 -13.9572,-13.73899 -14.2783,-13.73899 z"
         style="fill:#e82110;fill-opacity:1;stroke:none;stroke-width:0.57195562;stroke-miterlimit:4;stroke-dasharray:none" />
      <path
         id="path1523-3-9-2-1"
         d="m 1911.1564,648.32163 c -1.121,0 -27.4624,26.32514 -27.4624,27.44554 0,0.47189 5.9819,6.84459 13.2934,14.16103 7.3111,7.31645 13.6803,13.3013 14.1522,13.3013 1.1213,0 27.4623,-26.32324 27.4623,-27.44362 0,-1.12133 -26.325,-27.46425 -27.4455,-27.46425 z"
         style="fill:#e82110;fill-opacity:1;stroke:none;stroke-width:0.57195562;stroke-miterlimit:4;stroke-dasharray:none" />
      <path
         id="path1521-8-8-3-1"
         d="m 2000.9548,648.32163 c -1.1214,0 -27.4639,26.32514 -27.4639,27.44554 0,0.47189 5.9829,6.84459 13.2945,14.16103 7.3113,7.31645 13.6787,13.3013 14.1506,13.3013 1.1214,0 27.4624,-26.32324 27.4624,-27.44362 0,-1.12133 -26.3231,-27.46425 -27.4436,-27.46425 z"
         style="fill:#e82110;fill-opacity:1;stroke:none;stroke-width:0.57195562;stroke-miterlimit:4;stroke-dasharray:none" />
      <path
         id="path1517-6-0-2-2"
         d="m 1499.0871,692.93413 c -0.6757,0 -26.4835,25.61162 -27.2947,27.08686 -0.5038,0.91667 1.2935,2.94843 13.0366,14.72903 7.4918,7.51586 13.8836,13.66494 14.2045,13.66494 0.7553,0 27.7604,-26.97745 27.7604,-27.73207 0,-0.7322 -26.9756,-27.74876 -27.7068,-27.74876 z"
         style="fill:#e82110;fill-opacity:1;stroke:none;stroke-width:0.57195562;stroke-miterlimit:4;stroke-dasharray:none" />
      <path
         id="path1515-1-4-7-8"
         d="m 1956.0474,692.93413 c -0.7549,0 -27.7404,26.99732 -27.7404,27.7522 0,0.32565 6.1248,6.69687 13.611,14.15915 7.4863,7.46266 13.8537,13.56948 14.1511,13.56948 0.7319,0 27.7167,-27.00758 27.7167,-27.74045 0,-0.74742 -26.9911,-27.74038 -27.7384,-27.74038 z"
         style="fill:#e82110;fill-opacity:1;stroke:none;stroke-width:0.57195562;stroke-miterlimit:4;stroke-dasharray:none" />
      <path
         id="path1513-3-4-7-1"
         d="m 1864.136,785.57944 c -11.0978,-0.0635 -25.5861,0.20122 -26.0832,0.69861 -0.5063,0.50639 -0.6871,5.66007 -0.6871,19.63703 0,10.42281 0.1743,19.12509 0.3889,19.33871 0.213,0.21368 9.1572,0.32224 19.8749,0.23951 l 19.4879,-0.15084 0.1506,-19.40746 c 0.1184,-15.14615 0,-19.50833 -0.5733,-19.86634 -0.4635,-0.29422 -5.9003,-0.4513 -12.5589,-0.48924 z"
         style="fill:#e82110;fill-opacity:1;stroke:none;stroke-width:0.57195562;stroke-miterlimit:4;stroke-dasharray:none" />
      <path
         id="path1511-3-4-2-4"
         d="m 1921.1352,785.5909 c -10.1596,0 -18.8797,0.15624 -19.3773,0.34719 -0.8005,0.30697 -0.9048,2.57611 -0.9048,19.63859 0,10.60947 0.1743,19.46349 0.3884,19.67711 0.2152,0.21368 9.1572,0.32224 19.8749,0.23951 l 19.4881,-0.15084 0.1506,-19.09242 c 0.1076,-13.61321 -0.037,-19.31664 -0.4994,-19.87465 -0.5255,-0.63333 -4.1855,-0.78452 -19.1208,-0.78452 z"
         style="fill:#e82110;fill-opacity:1;stroke:none;stroke-width:0.57195562;stroke-miterlimit:4;stroke-dasharray:none" />
      <path
         id="path1509-7-4-0-7"
         d="m 1598.0123,785.60961 c -9.3317,-0.0314 -18.7286,0.0671 -19.4088,0.32848 -0.8003,0.30697 -0.9049,2.57611 -0.9049,19.63859 0,10.60947 0.1743,19.46349 0.3888,19.67711 0.2131,0.21368 9.1572,0.32224 19.875,0.23951 l 19.4861,-0.15084 0.1506,-19.40724 c 0.1184,-15.14637 0,-19.50855 -0.5713,-19.86656 -0.4168,-0.26469 -9.6831,-0.42765 -19.0153,-0.45908 z"
         style="fill:#e82110;fill-opacity:1;stroke:none;stroke-width:0.57195562;stroke-miterlimit:4;stroke-dasharray:none" />
      <path
         id="path1507-1-7-6-2"
         d="m 1526.0986,785.69486 c -7.3735,0.0151 -10.6859,0.18378 -11.1045,0.53128 -0.6339,0.52591 -0.7826,4.26691 -0.7826,19.64536 0,10.44753 0.1743,19.16867 0.3886,19.38229 0.213,0.21368 9.1574,0.32224 19.875,0.23951 l 19.4863,-0.15084 v -19.73252 -19.73223 l -19.0925,-0.15087 c -3.4035,-0.028 -6.3126,-0.0374 -8.7703,-0.0321 z"
         style="fill:#e82110;fill-opacity:1;stroke:none;stroke-width:0.57195562;stroke-miterlimit:4;stroke-dasharray:none" />
      <path
         id="path1505-4-8-5-4"
         d="m 1727.5587,831.9195 c -1.1209,0 -27.4623,26.32522 -27.4623,27.44554 0,0.47189 5.9818,6.84461 13.2929,14.16082 7.3115,7.31642 13.6809,13.30121 14.1526,13.30121 1.1212,0 27.4624,-26.32321 27.4624,-27.44361 0,-1.12112 -26.3251,-27.46396 -27.4456,-27.46396 z"
         style="fill:#e82110;fill-opacity:1;stroke:none;stroke-width:0.57195562;stroke-miterlimit:4;stroke-dasharray:none" />
      <path
         id="path1503-7-2-1-9"
         d="m 1927.0464,849.16715 c -2.2872,0.003 -4.763,0.0151 -7.319,0.0385 l -18.5879,0.15901 -0.1507,19.15607 c -0.084,10.53613 -0.026,19.48373 0.127,19.88341 0.2195,0.57195 4.4501,0.69485 19.8834,0.57635 l 19.6053,-0.15087 0.1506,-19.57668 0.1485,-19.57668 -1.2937,-0.31477 c -0.5341,-0.13042 -5.7013,-0.20379 -12.5641,-0.19474 z"
         style="fill:#e82110;fill-opacity:1;stroke:none;stroke-width:0.57195562;stroke-miterlimit:4;stroke-dasharray:none" />
      <path
         id="path1501-1-4-6-9"
         d="m 1514.4964,849.36461 -0.1506,19.15615 c -0.084,10.53613 -0.026,19.48363 0.1291,19.88341 0.2195,0.57195 4.4497,0.69485 19.8833,0.57624 l 19.6034,-0.15063 v -19.73262 -19.73244 h -19.7325 z"
         style="fill:#e82110;fill-opacity:1;stroke:none;stroke-width:0.57195562;stroke-miterlimit:4;stroke-dasharray:none" />
      <path
         id="path1499-9-1-2-8"
         d="m 1577.9835,849.36461 -0.1506,19.15615 c -0.084,10.53613 -0.026,19.48363 0.1291,19.88341 0.2193,0.57195 4.4497,0.69485 19.8829,0.57624 l 19.6038,-0.15063 v -19.73262 -19.73244 h -19.7325 z"
         style="fill:#e82110;fill-opacity:1;stroke:none;stroke-width:0.57195562;stroke-miterlimit:4;stroke-dasharray:none" />
      <path
         id="path1497-3-5-3-0"
         d="m 1837.6524,849.36461 -0.1507,19.15615 c -0.084,10.53613 -0.026,19.48363 0.127,19.88341 0.2195,0.57195 4.4497,0.69485 19.8829,0.57624 l 19.6053,-0.15063 v -19.73262 -19.73244 h -19.7325 z"
         style="fill:#e82110;fill-opacity:1;stroke:none;stroke-width:0.57195562;stroke-miterlimit:4;stroke-dasharray:none" />
      <path
         id="path1495-1-8-82-1"
         d="m 1772.1663,876.25207 -13.7286,13.72032 c -7.5506,7.54575 -13.7288,13.97688 -13.7288,14.29168 0,0.31453 6.1108,6.68573 13.5794,14.15912 7.4688,7.4739 13.8453,13.58966 14.1711,13.58966 0.3261,0 6.7568,-6.1832 14.2902,-13.74045 l 13.6966,-13.74013 -14.141,-14.13938 z"
         style="fill:#e82110;fill-opacity:1;stroke:none;stroke-width:0.57195562;stroke-miterlimit:4;stroke-dasharray:none" />
      <path
         id="path1493-6-1-5-2"
         d="m 1682.6612,876.53203 c -0.7475,0 -27.7487,26.98485 -27.7487,27.73204 0,0.31453 6.1109,6.68573 13.5793,14.15912 7.4688,7.4739 13.8363,13.58966 14.1511,13.58966 0.7478,0 27.7488,-26.98485 27.7488,-27.7319 0,-0.74787 -26.9833,-27.74892 -27.7305,-27.74892 z"
         style="fill:#e82110;fill-opacity:1;stroke:none;stroke-width:0.57195562;stroke-miterlimit:4;stroke-dasharray:none" />
      <path
         id="path1408-3-2-7-6"
         d="m 1727.5587,921.71757 c -1.1209,0 -27.4623,26.32363 -27.4623,27.44393 0,0.47183 5.9818,6.84472 13.2929,14.16106 7.3115,7.31612 13.6809,13.30283 14.1526,13.30283 1.1212,0 27.4624,-26.32509 27.4624,-27.4456 0,-1.12088 -26.3251,-27.46222 -27.4456,-27.46222 z"
         style="fill:#e82110;fill-opacity:1;stroke:none;stroke-width:0.57195562;stroke-miterlimit:4;stroke-dasharray:none" />
    </g>
  </g>
</svg>
