<svg xmlns="http://www.w3.org/2000/svg" viewBox="0 0 79.375 79.375" height="300" width="300"><g fill="#fff"><path d="M38.433 72.918l-1.684-1.685 1.65-1.65c.908-.909 1.696-1.652 1.752-1.652.134 0 3.302 3.171 3.302 3.305 0 .088-3.22 3.367-3.305 3.367-.017 0-.789-.758-1.715-1.685zM33.163 67.714c-.864-.86-1.589-1.623-1.611-1.694-.032-.1.307-.476 1.6-1.77.903-.903 1.672-1.642 1.71-1.642.109 0 3.335 3.259 3.335 3.37 0 .153-3.176 3.301-3.332 3.301-.082 0-.724-.59-1.702-1.565zM43.67 67.642c-.897-.9-1.632-1.665-1.632-1.698 0-.107 3.26-3.336 3.368-3.336.112 0 3.371 3.226 3.371 3.337 0 .11-3.26 3.334-3.372 3.334-.056 0-.837-.737-1.734-1.637zM15.03 64.145c-.126-.126-.116-4.592.01-4.697.066-.055.756-.071 2.41-.059l2.317.018v4.784l-2.328.018c-1.754.014-2.347-.002-2.409-.064zM22.46 64.141c-.018-.047-.025-1.131-.015-2.41l.017-2.324h4.785v4.784l-2.377.018c-1.872.014-2.385 0-2.41-.068zM53.064 64.12c-.023-.06-.042-1.118-.042-2.352 0-1.816.018-2.258.093-2.32.065-.055.755-.071 2.409-.059l2.317.018v4.784l-2.368.018c-2.116.016-2.373.006-2.41-.09zM60.548 64.181c-.025-.025-.046-1.08-.046-2.346 0-1.699.021-2.321.081-2.38.126-.127 4.592-.116 4.697.01.054.066.071.756.058 2.41l-.017 2.316-2.364.018c-1.3.01-2.384-.003-2.409-.028zM38.483 62.388c-.898-.899-1.634-1.68-1.634-1.735 0-.056.743-.844 1.652-1.752l1.65-1.65 1.702 1.701 1.7 1.701-1.683 1.685c-.926.927-1.7 1.685-1.719 1.685-.019 0-.77-.736-1.668-1.635zM14.994 56.701c-.025-.025-.045-1.08-.045-2.346 0-1.699.02-2.321.08-2.38.094-.095 4.542-.118 4.688-.026.067.043.081.57.067 2.408l-.017 2.354-2.364.018c-1.3.01-2.384-.003-2.409-.028zM22.474 56.701c-.025-.025-.045-1.08-.045-2.346 0-1.699.02-2.321.08-2.38.126-.127 4.592-.116 4.697.01.054.066.071.756.058 2.41l-.017 2.316-2.364.018c-1.3.01-2.384-.003-2.409-.028zM53.068 56.701c-.025-.025-.046-1.08-.046-2.346 0-1.699.021-2.321.081-2.38.126-.127 4.592-.116 4.697.01.054.066.071.756.058 2.41l-.017 2.316-2.364.018c-1.3.01-2.384-.003-2.409-.028zM60.548 56.701c-.025-.025-.046-1.08-.046-2.346 0-1.699.021-2.321.081-2.38.126-.127 4.592-.116 4.697.01.054.066.071.756.058 2.41l-.017 2.316-2.364.018c-1.3.01-2.384-.003-2.409-.028z"/><path d="M40.15 24.601c-.055 0-1.033.933-2.173 2.073l-2.072 2.072-2.991.019-2.992.019-.04.149c-.022.082-.04 1.438-.04 3.014v2.864l-2.056 2.055c-1.13 1.13-2.055 2.1-2.055 2.156 0 .056.923 1.026 2.053 2.155l2.053 2.052.019 2.987c.016 2.568.033 2.996.12 3.05.06.038 1.304.065 3.033.065l2.931.002 2.088 2.089h-.001c1.148 1.148 2.119 2.09 2.156 2.091.037.002.994-.938 2.127-2.089l2.06-2.092h2.939c2.582 0 2.952-.012 3.045-.105.093-.093.106-.464.106-3.05v-2.944l2.055-2.054c1.13-1.13 2.055-2.1 2.055-2.157 0-.056-.925-1.026-2.055-2.156L50.46 34.81V31.88c-.001-1.613-.025-2.969-.053-3.014-.04-.062-.78-.087-3.032-.101l-2.978-.02-2.073-2.071c-1.14-1.14-2.119-2.073-2.174-2.073zm-.037 8.77c3.355-.039 6.018 2.844 5.688 6.258-.258 2.67-2.347 4.748-5.077 5.052a8.777 8.777 0 0 1-.674.06l-.505-.06c-2.37-.28-4.285-1.954-4.895-4.277-.184-.704-.171-2.115.027-2.807.689-2.413 2.67-4.048 5.109-4.213a5.85 5.85 0 0 1 .327-.013zm.176 2.573a3.213 3.213 0 0 0-1.519.343 3.104 3.104 0 0 0-1.67 3.21c.184 1.186 1.031 2.156 2.209 2.53.416.132 1.302.116 1.78-.033a3.115 3.115 0 0 0 2.063-2.122c.083-.288.107-.568.087-1.02-.024-.556-.054-.678-.283-1.14-.544-1.102-1.564-1.736-2.667-1.768z" stroke="#fff" stroke-width=".06739303999999999"/><path d="M11.528 46.013c-.898-.899-1.634-1.665-1.634-1.702 0-.11 3.26-3.334 3.37-3.334.157 0 3.302 3.177 3.302 3.335 0 .159-3.145 3.336-3.302 3.336-.056 0-.837-.736-1.736-1.635zM65.37 46.013c-.898-.899-1.633-1.678-1.633-1.732 0-.157 3.176-3.304 3.334-3.304.161 0 3.337 3.143 3.337 3.303 0 .11-3.227 3.368-3.336 3.368-.037 0-.803-.736-1.701-1.635zM6.272 40.757c-.899-.899-1.634-1.68-1.634-1.736 0-.132 3.171-3.3 3.303-3.3.112 0 3.369 3.227 3.369 3.337 0 .087-3.252 3.334-3.34 3.334-.035 0-.8-.736-1.698-1.635zM16.852 40.757c-.899-.899-1.634-1.68-1.634-1.736 0-.132 3.171-3.3 3.303-3.3.056 0 .84.738 1.742 1.641 1.426 1.427 1.632 1.659 1.571 1.77-.096.174-3.204 3.26-3.284 3.26-.036 0-.8-.736-1.698-1.635zM60.133 40.775c-.909-.907-1.652-1.695-1.652-1.751 0-.134 3.17-3.304 3.303-3.304.055 0 .843.743 1.751 1.651l1.65 1.652-1.7 1.7-1.7 1.699zM70.644 40.707l-1.684-1.685 1.65-1.65c.908-.909 1.696-1.652 1.753-1.652.132 0 3.302 3.17 3.302 3.303 0 .089-3.217 3.369-3.303 3.369-.019 0-.792-.758-1.718-1.685zM11.493 35.464c-.88-.882-1.599-1.648-1.599-1.703 0-.108 3.233-3.364 3.34-3.364.107 0 3.332 3.26 3.332 3.37 0 .158-3.177 3.301-3.337 3.301-.09 0-.695-.56-1.736-1.604zM65.336 35.464c-.88-.882-1.599-1.648-1.599-1.702 0-.108 3.229-3.365 3.337-3.365.108 0 3.334 3.26 3.334 3.37 0 .158-3.176 3.301-3.337 3.301-.089 0-.694-.56-1.735-1.604zM15.03 26.071c-.126-.126-.116-4.591.01-4.697.066-.054.756-.071 2.41-.059l2.317.018v4.785l-2.328.017c-1.754.014-2.347-.002-2.409-.064zM22.474 26.107c-.025-.025-.045-1.08-.045-2.346 0-1.699.02-2.321.08-2.38.126-.126 4.592-.116 4.697.01.054.066.071.756.058 2.41l-.017 2.317-2.364.017c-1.3.01-2.384-.003-2.409-.028zM53.064 26.046c-.023-.06-.042-1.115-.042-2.346 0-1.652.022-2.26.081-2.32.094-.093 4.542-.117 4.688-.024.066.042.081.57.067 2.408l-.017 2.354-2.368.017c-2.116.016-2.373.007-2.41-.09zM60.533 26.068c-.018-.047-.024-1.132-.015-2.41l.018-2.325h4.785v4.785l-2.378.017c-1.871.014-2.384 0-2.41-.067zM38.483 19.126c-.898-.9-1.634-1.68-1.634-1.736 0-.132 3.171-3.301 3.303-3.301.109 0 3.369 3.226 3.369 3.333 0 .087-3.247 3.338-3.335 3.338-.038 0-.804-.735-1.703-1.634zM14.99 18.566c-.023-.06-.041-1.115-.041-2.346 0-1.652.02-2.26.08-2.32.094-.093 4.542-.117 4.688-.024.067.042.081.57.067 2.408l-.017 2.354-2.368.017c-2.115.016-2.372.007-2.41-.09zM22.474 18.627c-.025-.025-.045-1.08-.045-2.346 0-1.699.02-2.32.08-2.38.126-.126 4.592-.116 4.697.01.054.066.071.756.058 2.41l-.017 2.317-2.364.017c-1.3.01-2.384-.003-2.409-.028zM53.068 18.627c-.025-.025-.046-1.08-.046-2.346 0-1.699.021-2.32.081-2.38.094-.094 4.542-.118 4.688-.025.066.042.081.57.067 2.408l-.017 2.354-2.364.017c-1.3.01-2.384-.003-2.409-.028zM60.548 18.627c-.025-.025-.046-1.08-.046-2.346 0-1.699.021-2.32.081-2.38.126-.126 4.592-.116 4.697.01.054.066.071.756.058 2.41l-.017 2.317-2.364.017c-1.3.01-2.384-.003-2.409-.028zM43.743 13.872c-.9-.898-1.637-1.679-1.637-1.736 0-.112 3.225-3.37 3.336-3.37.11 0 3.335 3.26 3.335 3.371 0 .107-3.23 3.367-3.336 3.367-.033 0-.798-.734-1.698-1.632zM33.152 13.795c-1.426-1.427-1.631-1.659-1.57-1.77.095-.174 3.203-3.26 3.283-3.26.036 0 .822.758 1.747 1.684l1.683 1.683-1.648 1.652c-.906.91-1.694 1.653-1.75 1.653-.057 0-.842-.74-1.745-1.642zM38.483 8.546c-.898-.9-1.634-1.68-1.634-1.736 0-.132 3.171-3.3 3.303-3.3.111 0 3.369 3.226 3.369 3.336 0 .088-3.249 3.335-3.337 3.335-.037 0-.802-.736-1.7-1.635z"/><path d="M40.188 3.577c-.09 0-3.271 3.178-3.271 3.267 0 .037.72.788 1.6 1.668.88.88 1.605 1.601 1.611 1.601.105 0 .447-.326 1.772-1.691l1.572-1.62-1.608-1.612c-.884-.887-1.639-1.613-1.676-1.613zM34.895 8.8l-1.666 1.666-1.666 1.666 1.614 1.618c.887.89 1.66 1.62 1.716 1.62.133 0 3.237-3.102 3.237-3.235 0-.056-.728-.83-1.618-1.719zM45.441 8.833c-.077 0-3.12 3.023-3.213 3.193-.06.11.142.338 1.538 1.735.884.885 1.637 1.608 1.674 1.608.09 0 3.27-3.18 3.27-3.27 0-.085-3.183-3.266-3.269-3.266zM62.908 13.885c-1.109.006-2.21.036-2.257.083-.06.06-.081.667-.081 2.313 0 1.228.02 2.254.046 2.279.025.025 1.078.038 2.341.028l2.296-.018.018-2.286c.014-1.785 0-2.299-.068-2.341-.072-.046-1.187-.064-2.295-.058zM55.423 13.887c-1.6 0-2.193.021-2.252.08-.06.06-.081.668-.081 2.314 0 1.228.02 2.253.045 2.278.024.025 1.086.045 2.358.045h2.314v-2.318c0-2.05-.012-2.322-.107-2.358-.058-.023-1.083-.041-2.277-.041zM24.89 13.889c-1.1-.004-2.207.008-2.287.039-.095.036-.107.303-.107 2.313 0 1.25.02 2.294.046 2.319.025.025 1.079.038 2.341.028l2.296-.018.018-2.286c.014-1.785 0-2.299-.067-2.341-.05-.031-1.141-.05-2.24-.054zM16.417 13.899c-.87.002-1.26.022-1.309.062-.074.062-.092.503-.092 2.315 0 1.231.02 2.259.046 2.284.025.025 1.079.038 2.341.028l2.296-.018v-4.649l-2.25-.018a99.275 99.275 0 0 0-1.032-.004zM40.188 14.156c-.09 0-3.271 3.179-3.271 3.268 0 .037.72.787 1.6 1.668.88.88 1.615 1.601 1.634 1.601.02 0 .777-.742 1.684-1.65l1.648-1.65-1.613-1.618c-.888-.89-1.645-1.619-1.682-1.619zM16.3 21.378c-.9.002-1.196.022-1.228.072-.065.103-.075 4.525-.01 4.59.025.025 1.079.038 2.341.028l2.296-.018v-4.649l-2.286-.018a129.24 129.24 0 0 0-1.113-.005zM54.49 21.379c-.868.002-1.259.022-1.308.063-.075.061-.092.502-.092 2.314 0 1.231.02 2.259.046 2.284.025.025 1.078.038 2.341.028l2.296-.018v-4.649l-2.25-.018a100.11 100.11 0 0 0-1.033-.004zM22.53 21.4l-.018 2.258c-.01 1.24-.003 2.295.015 2.342.026.068.524.082 2.343.068l2.31-.018v-4.649h-2.326zM60.604 21.4l-.018 2.258c-.01 1.24-.003 2.295.015 2.342.026.068.524.082 2.342.068l2.31-.018v-4.649h-2.325zM13.26 30.434L11.596 32.1l-1.666 1.666 1.616 1.617c.89.89 1.662 1.618 1.718 1.618.133 0 3.235-3.102 3.235-3.236 0-.057-.728-.83-1.618-1.717zM67.073 30.464c-.078 0-3.12 3.023-3.213 3.193-.061.11.14.338 1.537 1.735.884.885 1.637 1.609 1.675 1.609.09 0 3.269-3.18 3.269-3.27 0-.085-3.183-3.267-3.268-3.267zM7.975 35.788c-.09 0-3.27 3.18-3.27 3.27 0 .038.73.795 1.62 1.683l1.618 1.614 1.666-1.666 1.666-1.666-1.616-1.618c-.89-.89-1.647-1.617-1.684-1.617zM18.556 35.788c-.09 0-3.27 3.179-3.27 3.27 0 .038.721.788 1.603 1.668.882.879 1.618 1.598 1.635 1.598.017 0 .773-.742 1.68-1.65l1.648-1.649-1.614-1.619c-.887-.89-1.644-1.618-1.682-1.618zM61.784 35.788c-.132 0-3.236 3.101-3.236 3.233 0 .056.705.807 1.566 1.669.862.862 1.612 1.567 1.668 1.567.132 0 3.235-3.102 3.235-3.234 0-.132-3.101-3.235-3.233-3.235zM72.364 35.788c-.132 0-3.236 3.101-3.236 3.233 0 .056.705.807 1.566 1.669.862.862 1.612 1.567 1.667 1.567.133 0 3.236-3.102 3.236-3.234 0-.132-3.101-3.235-3.233-3.235zM13.234 41.044c-.08 0-3.12 3.017-3.216 3.191-.06.108.153.348 1.536 1.736.883.885 1.636 1.61 1.674 1.61.089 0 3.27-3.179 3.27-3.268 0-.086-3.178-3.27-3.264-3.27zM67.073 41.044c-.09 0-3.269 3.18-3.269 3.27 0 .038.722.789 1.604 1.668.882.88 1.632 1.599 1.667 1.599.087 0 3.266-3.182 3.266-3.269 0-.088-3.18-3.268-3.268-3.268zM56.244 51.96c-1.308-.008-3.015.023-3.073.082-.06.06-.081.666-.081 2.313 0 1.228.02 2.253.046 2.279.025.025 1.078.038 2.341.028l2.296-.018.018-2.286c.014-1.785 0-2.299-.068-2.341-.054-.035-.695-.053-1.48-.058zM62.96 51.96c-1.198 0-2.225.019-2.284.042-.094.036-.106.303-.106 2.313 0 1.25.02 2.293.046 2.319.025.025 1.078.038 2.341.028l2.296-.018.018-2.25c.013-1.603-.004-2.275-.059-2.341-.062-.075-.493-.092-2.253-.092zM24.89 51.963c-1.1-.004-2.207.008-2.287.039-.095.036-.107.303-.107 2.313 0 1.25.02 2.293.046 2.319.025.025 1.079.038 2.341.028l2.296-.018.018-2.286c.014-1.785 0-2.299-.067-2.341-.05-.031-1.141-.05-2.24-.054zM16.417 51.973c-.87.002-1.26.022-1.309.062-.074.062-.092.503-.092 2.315 0 1.231.02 2.258.046 2.284.025.025 1.079.038 2.341.028l2.296-.018v-4.65l-2.25-.017a100.58 100.58 0 0 0-1.032-.004zM40.152 57.419c-.132 0-3.235 3.102-3.235 3.234 0 .055.705.806 1.566 1.668.861.862 1.612 1.567 1.667 1.567.132 0 3.236-3.101 3.236-3.233 0-.132-3.102-3.236-3.234-3.236zM63.656 59.451c-.27 0-.561.002-.862.005l-2.19.018-.018 2.257c-.01 1.242-.003 2.296.015 2.343.026.067.524.082 2.342.068l2.31-.018.018-2.306.017-2.307-.152-.037c-.063-.015-.672-.024-1.48-.023zM15.05 59.474l-.018 2.257c-.01 1.242-.003 2.296.015 2.343.026.067.524.082 2.343.068l2.31-.018v-4.65h-2.326zM22.53 59.474l-.018 2.257c-.01 1.242-.003 2.296.015 2.343.026.067.524.082 2.343.068l2.31-.018v-4.65h-2.326zM53.124 59.474l-.018 2.257c-.01 1.242-.003 2.296.015 2.343.026.067.524.082 2.342.068l2.31-.018v-4.65h-2.325zM45.408 62.642l-1.617 1.617c-.89.889-1.618 1.646-1.618 1.684 0 .037.72.787 1.6 1.668.88.88 1.631 1.6 1.67 1.6.038 0 .796-.728 1.683-1.618l1.614-1.619-1.666-1.666zM34.863 62.675c-.088 0-3.27 3.18-3.27 3.268 0 .037.72.787 1.6 1.668.88.88 1.63 1.6 1.667 1.6.089 0 3.27-3.178 3.27-3.266 0-.089-3.18-3.27-3.267-3.27zM40.152 67.999c-.132 0-3.235 3.101-3.235 3.233 0 .056.705.807 1.566 1.669.861.862 1.612 1.567 1.667 1.567.132 0 3.236-3.101 3.236-3.233 0-.133-3.102-3.236-3.234-3.236z"/></g></svg>