<svg xmlns="http://www.w3.org/2000/svg" viewBox="0 0 79 79" height="300" width="300"><g fill="#fff"><path d="M38 73l-1-2 1-1 2-2 3 3-3 4-2-2zm-5-5l-1-2 1-2 2-1 3 3-3 3-2-1zm11 0l-2-2 3-3 4 3-4 3-1-1zm-29-4v-5h5v5h-5zm7 0v-5h5v5h-5zm31 0a36 36 0 0 1 0-5h5v5h-5zm8 0a31 31 0 0 1 0-5h4v5h-4zm-23-2l-1-1 2-2 1-2 2 2 2 2-2 1-2 2-2-2zm-23-5a32 32 0 0 1 0-5h5v5h-5zm7 0a32 32 0 0 1 1-5h4v5h-5zm31 0a31 31 0 0 1 0-5h5v5h-5zm8 0a31 31 0 0 1 0-5h4v5h-4zM40 25l-2 2-2 2h-6v6l-2 2-2 2 2 2 2 2v6h6l2 2 2 3 2-3 2-2h6v-6l3-2 2-2-2-2-3-2v-3-3h-6l-2-2-2-2zm0 8a6 6 0 0 1 1 12 9 9 0 0 1-1 0c-3-1-5-2-5-5v-2c0-3 2-4 5-5zm0 3a3 3 0 0 0-1 0 3 3 0 0 0-2 3c0 2 1 3 2 3h2a3 3 0 0 0 2-2v-1-1l-3-2zM12 46l-2-2 3-3 4 3-4 4-1-2zm53 0l-1-2 3-3 3 3-3 4-2-2zM6 41l-1-2 3-3 3 3-3 3-2-1zm11 0l-2-2 4-3 1 1 2 2-3 3-2-1zm43 0l-2-2 4-3 2 1 1 2-2 2-1 1zm11 0l-2-2 2-2 1-1 4 3-4 3-1-1zm-60-6l-1-1 3-4 4 4-4 3-2-2zm54 0l-1-1 3-4 3 4-3 3-2-2zm-50-9v-5h5v5h-5zm7 0a32 32 0 0 1 1-5h4v5h-5zm31 0a36 36 0 0 1 0-5h5v5h-5zm8 0v-5h4v5h-4zm-23-7l-1-2 3-3 4 3-4 4-2-2zm-23 0a36 36 0 0 1 0-5h5v5h-5zm7 0a32 32 0 0 1 1-5h4v5h-5zm31 0a31 31 0 0 1 0-5h5v5h-5zm8 0a31 31 0 0 1 0-5h4v5h-4zm-17-5l-2-2 3-3 4 3-4 4-1-2zm-11 0l-1-2 3-3 2 1 1 2-1 2-2 1-2-1zm5-5l-1-2 3-3 4 3-4 3-2-1z"/><path d="M40 4l-3 3a29 29 0 0 0 3 3l2-2 1-1-1-2-2-1zm-5 5l-2 1-1 2 1 2 2 1 3-3-1-2zm10 0l-3 3 2 2 1 1 4-3-4-3zm18 5h-2v5h4v-3-2h-2zm-8 0h-2v5h5v-3-2h-3zm-30 0h-2l-1 2 1 3h4v-3-2h-2zm-9 0h-1v5h5v-5h-3a99 99 0 0 0-1 0zm24 0l-3 3a30 30 0 0 0 3 4l2-2 1-2-1-1-2-2zm-24 7h-1v5h5v-5h-3a129 129 0 0 0-1 0zm38 0h-1v5h5v-5h-2a100 100 0 0 0-2 0zm-31 0v5h4v-5h-2zm38 0v5h4v-5h-2zm-48 9l-1 2-2 2 2 1 1 2 3-3-1-2zm54 0l-3 4 1 1 2 2 3-3-3-4zM8 36l-3 3 1 2 2 1 2-1 1-2-1-2-2-1zm11 0l-4 3a29 29 0 0 0 4 3l1-1 2-2-2-2-1-1zm43 0l-3 3 1 2 2 1 3-3-3-3zm10 0l-3 3 2 2 1 1 4-3-4-3zm-59 5l-3 3 2 2 1 2 3-4-3-3zm54 0l-3 3a29 29 0 0 0 3 4l3-4-3-3zM56 52h-3v5h5v-3-2h-2zm7 0h-2v5h4v-3-2h-2zm-38 0h-2l-1 2 1 3h4v-3-2h-2zm-9 0h-1v5h5v-5h-3a101 101 0 0 0-1 0zm24 5l-3 4 1 1 2 2 3-3-3-4zm24 2h-3v5h4v-5h-1zm-49 0v5h5v-5h-3zm8 0v5h4v-5h-2zm30 0v5h5v-5h-3zm-8 4l-1 1-2 2a30 30 0 0 0 3 3l2-1 2-2-2-2zm-10 0l-3 3a30 30 0 0 0 3 3l3-3-3-3zm5 5l-3 3 1 2 2 1 3-3-3-3z"/></g></svg>